<svg width="137" height="133" viewBox="0 0 137 133" fill="none" xmlns="http://www.w3.org/2000/svg">
<path d="M8.68242 92.6017C2.86923 79.5434 0.383194 49.9493 12.9434 29.5656C28.0646 5.02423 65.4872 -4.9996 92.5204 4.60132C128.517 17.3855 146.217 65.6978 129.882 98.2972C119.246 119.526 92.6561 132.93 66.5968 131.95C42.2156 131.033 14.677 119.732 5.53045 96.7675C-6.99373 65.3226 7.0095 18.8885 40.6046 5.89507C89.9772 -7.95822 124.74 18.9088 131.614 50.804C133.531 57.1354 134.76 82.3316 125.273 99.9602C108.232 131.627 49.5646 143.689 19.8668 118.231C-11.8284 91.0624 1.02341 29.983 33.3892 12.8655C55.085 1.38945 78.8144 3.8824 88.4138 8.21747" stroke="#FFB700" stroke-miterlimit="10"/>
</svg>
