<svg width="1775" height="531" viewBox="0 0 1775 531" fill="none" xmlns="http://www.w3.org/2000/svg">
<path d="M7.565 341.112C22.7757 347.064 39.1437 350.04 56.669 350.04C77.1703 350.04 93.0423 343.261 104.285 329.704C115.858 315.816 121.645 296.803 121.645 272.664V69.8H198.525V272.664C198.525 320.611 186.621 357.976 162.813 384.76C139.005 411.544 105.773 424.936 63.117 424.936C39.6397 424.936 19.469 422.125 2.605 416.504L7.565 341.112ZM393.275 424.936C341.029 424.936 300.357 409.229 271.259 377.816C242.16 346.403 227.611 302.093 227.611 244.888C227.611 206.861 234.059 174.125 246.955 146.68C260.181 119.235 279.195 98.2373 303.995 83.688C329.125 69.1387 358.885 61.864 393.275 61.864C427.664 61.864 457.259 69.1387 482.059 83.688C506.859 98.2373 525.707 119.235 538.603 146.68C551.829 174.125 558.443 206.861 558.443 244.888C558.443 302.093 543.893 346.403 514.795 377.816C486.027 409.229 445.52 424.936 393.275 424.936ZM306.475 244.888C306.475 278.616 314.08 305.069 329.291 324.248C344.832 343.096 366.16 352.52 393.275 352.52C420.389 352.52 441.552 343.096 456.763 324.248C472.304 305.069 480.075 278.616 480.075 244.888C480.075 210.829 472.469 184.376 457.259 165.528C442.048 146.68 420.72 137.256 393.275 137.256C365.829 137.256 344.501 146.68 329.291 165.528C314.08 184.376 306.475 210.829 306.475 244.888ZM675.352 69.8V417H598.472V69.8H675.352ZM876.092 69.8L967.356 409.56H968.844V69.8H1041.26V417H892.956L801.196 75.256H799.708V417H728.284V69.8H876.092ZM1481.93 269.688C1481.93 301.432 1475.82 329.043 1463.58 352.52C1451.68 375.667 1434.48 393.523 1412 406.088C1389.51 418.653 1363.06 424.936 1332.64 424.936C1301.88 424.936 1275.27 418.653 1252.78 406.088C1230.3 393.523 1213.1 375.667 1201.2 352.52C1189.29 329.043 1183.34 301.432 1183.34 269.688V69.8H1260.22V269.688C1260.22 297.464 1266.67 319.453 1279.56 335.656C1292.46 351.528 1310.15 359.464 1332.64 359.464C1355.12 359.464 1372.81 351.528 1385.71 335.656C1398.6 319.453 1405.05 297.464 1405.05 269.688V69.8H1481.93V269.688ZM1740.36 160.568C1727.79 153.624 1712.08 147.837 1693.24 143.208C1674.39 138.579 1655.38 136.264 1636.2 136.264C1606.44 136.264 1591.56 145.688 1591.56 164.536C1591.56 174.125 1596.35 182.061 1605.94 188.344C1615.86 194.296 1632.56 201.075 1656.04 208.68C1683.48 217.939 1705.31 227.363 1721.51 236.952C1737.71 246.541 1749.78 258.115 1757.72 271.672C1765.65 284.899 1769.62 301.432 1769.62 321.272C1769.62 344.419 1763.34 363.763 1750.77 379.304C1738.54 394.845 1722 406.419 1701.17 414.024C1680.67 421.299 1658.19 424.936 1633.72 424.936C1608.26 424.936 1584.61 422.456 1562.79 417.496C1541.3 412.536 1523.11 405.757 1508.23 397.16L1512.2 317.8C1527.74 326.067 1546.42 333.672 1568.24 340.616C1590.4 347.229 1612.06 350.536 1633.22 350.536C1652.73 350.536 1667.11 348.056 1676.37 343.096C1685.96 337.805 1690.76 330.531 1690.76 321.272C1690.76 310.691 1685.47 302.259 1674.88 295.976C1664.63 289.693 1646.45 282.419 1620.32 274.152C1595.19 266.216 1574.86 257.784 1559.32 248.856C1544.11 239.597 1532.53 228.355 1524.6 215.128C1516.66 201.901 1512.69 185.368 1512.69 165.528C1512.69 132.461 1523.77 107 1545.92 89.144C1568.08 70.9573 1599.33 61.864 1639.67 61.864C1680.67 61.864 1715.89 69.6347 1745.32 85.176L1740.36 160.568Z" fill="black"/>
<g filter="url(#filter0_d_1541_843)">
<ellipse cx="409.908" cy="450.903" rx="151.777" ry="54.628" transform="rotate(-9.89858 409.908 450.903)" fill="white"/>
</g>
<path d="M325.86 485.722L321.391 460.114L328.342 458.901L340.658 471.152L338.219 457.178L345.17 455.965L349.639 481.573L342.688 482.785L330.372 470.535L332.811 484.509L325.86 485.722ZM353.297 480.934L348.828 455.326L370.046 451.624L371.131 457.843L356.864 460.332L357.471 463.808L370.274 461.574L371.36 467.793L358.556 470.027L359.162 473.502L373.795 470.949L374.881 477.168L353.297 480.934ZM383.657 475.636L380.274 456.247L372.958 457.524L371.872 451.305L393.456 447.539L394.541 453.758L387.225 455.034L390.608 474.423L383.657 475.636ZM416.353 443.543L422.51 455.926L424.072 442.196L431.499 440.9L428.395 467.829L420.968 469.125L414.848 456.736L413.249 470.472L405.823 471.768L393.782 447.482L401.208 446.186L407.365 458.569L408.927 444.839L416.353 443.543ZM434.106 453.639C432.574 444.859 436.056 439.539 444.946 437.988C453.836 436.437 458.914 440.263 460.446 449.043C461.978 457.822 458.496 463.142 449.606 464.693C440.717 466.245 435.638 462.419 434.106 453.639ZM441.24 452.394C442.044 457.003 444.392 459.006 448.489 458.291C452.586 457.576 454.117 454.897 453.312 450.287C452.508 445.678 450.16 443.675 446.063 444.39C441.6 445.169 440.436 447.785 441.24 452.394ZM465.617 461.334L461.148 435.726L472.855 433.683C481.342 432.202 484.536 434.736 485.544 440.516C486.33 445.016 485.211 448.114 480.708 449.955L488.481 457.344L480.067 458.812L472.699 451.805L471.163 452.073L472.567 460.121L465.617 461.334ZM470.078 445.854L474.577 445.069C478.419 444.398 478.704 443.444 478.411 441.761C478.117 440.078 477.525 439.277 473.684 439.947L469.184 440.732L470.078 445.854ZM491.41 456.833L486.942 431.225L493.892 430.012L498.361 455.62L491.41 456.833ZM504.541 441.348L516.286 452.492L507.872 453.96L496.127 442.816L503.404 428.353L511.818 426.884L504.541 441.348Z" fill="black"/>
<g filter="url(#filter1_d_1541_843)">
<ellipse cx="1246.87" cy="98.1217" rx="151.777" ry="62.3761" transform="rotate(10.9712 1246.87 98.1217)" fill="white"/>
</g>
<path d="M1151.8 74.856L1153.14 88.6202L1159.49 76.3472L1166.89 77.7819L1154.4 101.839L1147 100.404L1145.69 86.6468L1139.31 98.9127L1131.91 97.478L1129.31 70.4954L1136.71 71.9301L1138.05 85.6943L1144.4 73.4213L1151.8 74.856ZM1164.79 90.6139C1166.49 81.8643 1171.64 78.1342 1180.5 79.8515C1189.36 81.5689 1192.74 86.9529 1191.04 95.7025C1189.34 104.452 1184.2 108.182 1175.34 106.465C1166.48 104.748 1163.1 99.3635 1164.79 90.6139ZM1171.9 91.9921C1171.01 96.5856 1172.49 99.2934 1176.57 100.085C1180.66 100.877 1183.04 98.9179 1183.93 94.3244C1184.82 89.7308 1183.34 87.023 1179.26 86.2315C1174.81 85.3692 1172.79 87.3986 1171.9 91.9921ZM1191.49 109.03L1196.44 83.51L1208.11 85.7716C1216.57 87.4113 1218.65 90.9166 1217.53 96.6768C1216.66 101.161 1214.51 103.657 1209.65 103.773L1214.28 113.447L1205.89 111.821L1201.51 102.649L1199.98 102.352L1198.42 110.373L1191.49 109.03ZM1201.18 96.1544L1205.66 97.0237C1209.49 97.7658 1210.1 96.9756 1210.42 95.2986C1210.75 93.6216 1210.48 92.6619 1206.65 91.9198L1202.17 91.0505L1201.18 96.1544ZM1217.2 114.013L1222.15 88.4931L1229.07 89.836L1224.13 115.356L1217.2 114.013ZM1234.98 104.221L1241.99 118.819L1233.6 117.193L1226.6 102.596L1238.55 91.6735L1246.94 93.299L1234.98 104.221ZM1254.78 111.653C1249.11 109.684 1245.48 106.974 1246.54 101.505C1247.72 95.3807 1251.84 93.6813 1260 95.2644C1267.11 96.6426 1271.05 99.751 1269.8 106.167L1263.24 104.895C1263.64 102.854 1261.06 102.09 1258.11 101.517C1255.41 100.994 1253.96 101.243 1253.75 102.337C1253.54 103.43 1254.84 103.758 1259.49 105.34C1265.59 107.43 1269.37 110.168 1268.24 115.965C1267.12 121.762 1262.94 123.447 1254.66 121.842C1247.44 120.443 1243.43 117.321 1244.68 110.904L1251.24 112.176C1250.84 114.218 1253.53 115.003 1256.59 115.597C1259.4 116.141 1260.85 116.081 1261.06 114.951C1261.34 113.53 1258.18 112.842 1254.78 111.653ZM1269.68 124.186L1274.62 98.6664L1281.55 100.009L1279.68 109.67L1289.52 111.578L1291.39 101.917L1298.32 103.26L1293.37 128.78L1286.45 127.437L1288.32 117.776L1278.48 115.868L1276.6 125.529L1269.68 124.186ZM1298.76 116.586C1300.46 107.836 1305.61 104.106 1314.47 105.823C1323.33 107.541 1326.71 112.925 1325.01 121.674C1323.32 130.424 1318.17 134.154 1309.31 132.437C1300.45 130.719 1297.07 125.335 1298.76 116.586ZM1305.87 117.964C1304.98 122.557 1306.46 125.265 1310.54 126.057C1314.63 126.848 1317.01 124.889 1317.9 120.296C1318.79 115.702 1317.31 112.995 1313.23 112.203C1308.78 111.341 1306.76 113.37 1305.87 117.964ZM1325.46 135.001L1330.41 109.482L1342.08 111.743C1350.54 113.383 1352.6 116.998 1351.43 123.013C1350.26 129.028 1347 131.611 1338.54 129.972L1333.81 129.053L1332.39 136.344L1325.46 135.001ZM1335.01 122.855L1339.49 123.724C1343.32 124.467 1343.95 123.567 1344.32 121.635C1344.7 119.703 1344.45 118.633 1340.62 117.891L1336.14 117.022L1335.01 122.855ZM1362.12 132.462C1356.45 130.493 1352.82 127.783 1353.88 122.314C1355.06 116.19 1359.18 114.49 1367.34 116.073C1374.45 117.452 1378.39 120.56 1377.14 126.976L1370.58 125.704C1370.98 123.663 1368.4 122.899 1365.45 122.326C1362.75 121.803 1361.3 122.052 1361.09 123.146C1360.88 124.239 1362.18 124.567 1366.83 126.149C1372.93 128.239 1376.71 130.977 1375.59 136.774C1374.46 142.571 1370.28 144.256 1362 142.651C1354.78 141.252 1350.77 138.13 1352.02 131.713L1358.58 132.985C1358.18 135.027 1360.87 135.812 1363.93 136.406C1366.74 136.95 1368.19 136.891 1368.41 135.76C1368.68 134.339 1365.52 133.651 1362.12 132.462Z" fill="black"/>
<defs>
<filter id="filter0_d_1541_843" x="260.094" y="391.086" width="299.633" height="127.641" filterUnits="userSpaceOnUse" color-interpolation-filters="sRGB">
<feFlood flood-opacity="0" result="BackgroundImageFix"/>
<feColorMatrix in="SourceAlpha" type="matrix" values="0 0 0 0 0 0 0 0 0 0 0 0 0 0 0 0 0 0 127 0" result="hardAlpha"/>
<feOffset dy="8"/>
<feComposite in2="hardAlpha" operator="out"/>
<feColorMatrix type="matrix" values="0 0 0 0 1 0 0 0 0 1 0 0 0 0 1 0 0 0 1 0"/>
<feBlend mode="normal" in2="BackgroundImageFix" result="effect1_dropShadow_1541_843"/>
<feBlend mode="normal" in="SourceGraphic" in2="effect1_dropShadow_1541_843" result="shape"/>
</filter>
<filter id="filter1_d_1541_843" x="1097.39" y="30.3984" width="298.969" height="143.445" filterUnits="userSpaceOnUse" color-interpolation-filters="sRGB">
<feFlood flood-opacity="0" result="BackgroundImageFix"/>
<feColorMatrix in="SourceAlpha" type="matrix" values="0 0 0 0 0 0 0 0 0 0 0 0 0 0 0 0 0 0 127 0" result="hardAlpha"/>
<feOffset dy="8"/>
<feComposite in2="hardAlpha" operator="out"/>
<feColorMatrix type="matrix" values="0 0 0 0 1 0 0 0 0 1 0 0 0 0 1 0 0 0 1 0"/>
<feBlend mode="normal" in2="BackgroundImageFix" result="effect1_dropShadow_1541_843"/>
<feBlend mode="normal" in="SourceGraphic" in2="effect1_dropShadow_1541_843" result="shape"/>
</filter>
</defs>
</svg>
