<svg width="1029" height="879" viewBox="0 0 1029 879" fill="none" xmlns="http://www.w3.org/2000/svg">
<path d="M593.593 595.916C660.093 619.416 833.093 619.916 523.093 647.416C358.431 665.953 983.593 681.416 713.258 704.932C322.74 729.53 763.959 733.683 902.597 749.937C949.589 755.446 784.54 760.805 608.389 768.206C346.642 779.203 611.637 785.798 714.833 790.36C813.84 794.738 1113.74 808.939 1002.53 814.566C759.956 826.841 657.093 834.916 657.093 834.916C556.593 842.916 639.893 861.516 959.093 869.916" stroke="#7F7F7F" stroke-width="3" stroke-linecap="round"/>
<path d="M593.935 597.689C594.247 597.689 594.56 597.689 594.795 597.454C594.951 597.454 595.107 597.298 595.264 597.141C595.733 596.672 595.968 595.968 595.811 595.265L559.062 462.966V462.576C558.983 462.576 513.946 300.409 513.946 300.409L513.789 299.939L513.398 299.314L513.242 299.079L274.917 58.8L258.341 42.1455C241.296 24.9436 218.855 13.6059 195.007 10.2438C186.249 8.99271 177.492 8.36719 168.891 8.36719C125.73 8.36719 88.1986 23.9271 57.3134 54.4996C10.7119 100.71 6.88055 154.662 11.8065 191.802C13.3704 203.687 16.9671 215.259 22.2841 226.128C27.6792 236.996 34.6382 246.926 43.1609 255.449L298.14 512.696H298.218C298.218 512.774 298.375 512.93 298.375 512.93H298.531C298.531 513.008 298.531 513.008 298.531 513.087H298.687L299.078 513.243L460.542 559.61C460.776 559.61 461.089 559.766 461.089 559.766L499.559 570.791L593.387 597.767H593.465H593.856L593.935 597.689ZM545.926 463.592C546.238 463.592 546.473 463.592 546.786 463.592H547.098C547.333 463.592 547.646 463.67 547.959 463.67C548.819 463.748 549.679 463.827 550.539 463.983L555.699 464.687L586.194 574.544L591.354 592.997L463.356 556.248L462.731 551.087C462.653 550.227 462.575 549.367 462.496 548.507C462.496 548.272 462.496 547.96 462.496 547.647V547.334C462.496 547.099 462.496 546.787 462.418 546.552C462.418 546.083 462.418 545.536 462.34 545.066C462.34 544.597 462.34 544.128 462.34 543.659C462.34 543.034 462.34 542.408 462.34 541.704C462.34 541.313 462.34 540.766 462.34 540.297C462.027 517.856 469.377 499.012 484.155 484.391C498.464 470.238 516.604 463.045 538.185 463.045C559.765 463.045 539.592 463.045 540.296 463.045C540.687 463.045 541.156 463.045 541.625 463.045C542.251 463.045 542.876 463.045 543.502 463.123C543.971 463.123 544.44 463.123 544.909 463.201C545.378 463.201 545.926 463.201 546.395 463.279L545.926 463.592ZM537.872 459.448C536.152 459.448 534.432 459.448 532.868 459.604C532.164 459.604 531.539 459.604 530.913 459.761C529.036 459.917 527.238 460.073 525.44 460.308C524.11 460.464 522.781 460.699 521.452 460.934C505.814 463.827 492.209 470.864 481.106 481.889C470.003 492.913 462.809 506.44 459.838 522.078C458.665 528.021 458.196 534.198 458.196 540.531C458.196 540.844 458.196 541.157 458.196 541.548C458.196 542.017 458.196 542.408 458.196 542.799C458.196 543.268 458.196 543.737 458.196 544.128L458.665 554.997L422.932 544.754L385.792 534.12L301.502 509.881L308.227 414.645C308.539 409.875 309.556 405.106 311.198 400.57V400.414L311.276 400.336C313.153 395.175 315.811 390.328 319.173 385.949C328.869 373.517 339.425 361.553 350.684 350.372C361.943 339.269 373.985 328.792 386.495 319.174C390.639 316.047 395.174 313.545 400.1 311.668C400.257 311.668 400.491 311.512 400.491 311.512H400.648L401.039 311.277H401.43C405.886 309.635 410.5 308.775 415.191 308.462L510.505 302.598L554.292 460.23L543.424 459.604C543.033 459.604 542.563 459.604 542.172 459.604C541.703 459.604 541.312 459.604 540.843 459.604H540.765C540.452 459.604 540.14 459.604 539.827 459.604H539.749C539.279 459.604 538.81 459.604 538.341 459.604H537.794L537.872 459.448ZM304.552 413.159C304.552 413.55 304.552 413.863 304.473 414.254L297.905 506.988L144.339 352.014V349.043V348.105V346.385C144.183 345.681 144.105 344.977 144.105 344.195C144.105 343.961 144.105 343.726 144.105 343.491C144.105 343.491 144.027 341.537 144.027 341.459C144.027 341.302 144.027 341.068 144.027 340.911C144.027 340.755 144.027 339.113 144.027 339.113C144.027 339.113 144.027 337.784 144.027 337.627V337.236C144.027 337.08 144.027 336.923 144.027 336.767C144.027 334.969 144.027 333.249 144.027 331.528C144.027 331.216 144.027 330.903 144.027 330.512C144.027 327.697 144.183 324.804 144.261 322.067C144.261 321.442 144.261 320.816 144.339 320.191C144.496 318.08 144.574 316.125 144.73 314.248C144.73 313.857 144.73 313.466 144.809 313.075C144.809 312.763 144.887 311.903 144.887 311.903C144.887 311.433 144.887 311.042 145.043 310.651C145.512 306.038 146.06 301.425 146.763 296.89C146.763 296.577 146.841 296.186 146.92 295.717C146.92 295.483 146.998 295.248 147.076 294.935V294.622C147.467 292.589 147.858 290.635 148.171 288.68L148.64 286.334C148.64 285.943 148.796 285.474 148.874 285.083C149.578 281.799 150.36 278.515 151.22 275.231C151.377 274.527 151.611 273.746 151.767 273.042C152.002 272.104 152.237 271.165 152.549 270.227C152.628 269.836 152.784 269.445 152.94 268.976C153.175 268.194 153.409 267.412 153.644 266.63C153.8 266.161 153.957 265.692 154.113 265.145C154.27 264.754 154.348 264.285 154.504 263.894C154.661 263.424 154.817 263.033 154.973 262.564L159.039 250.601L307.21 400.101L306.506 403.464V403.62L306.272 404.402V404.558V404.636C306.272 404.793 306.194 405.027 306.115 405.184V405.34C305.959 405.809 305.881 406.2 305.803 406.669C305.803 406.904 305.803 407.06 305.725 407.139V407.295C305.646 407.529 305.568 407.842 305.568 408.077C305.49 408.546 305.412 408.859 305.334 409.25C305.334 409.719 305.177 410.188 305.099 410.579C305.099 410.892 305.021 411.283 304.943 411.674V411.986C304.943 412.299 304.864 412.534 304.786 412.846V413.003L304.552 413.159ZM313.309 387.747L307.992 395.645L160.603 246.926L162.871 242C163.105 241.453 163.418 240.827 163.652 240.28C164.434 238.716 165.216 237.074 166.155 235.354L166.702 234.259C167.093 233.478 167.484 232.774 167.875 231.992C168.109 231.601 168.344 231.132 168.578 230.741C168.813 230.272 169.126 229.803 169.36 229.333C169.595 228.942 169.751 228.63 169.908 228.317C170.142 227.926 170.299 227.535 170.533 227.222C170.846 226.675 171.159 226.128 171.471 225.658C173.035 223.078 174.677 220.498 176.397 217.996C176.632 217.683 176.867 217.292 177.101 216.979C177.414 216.51 177.727 216.119 177.961 215.728C178.274 215.337 178.509 214.946 178.821 214.555C179.291 213.93 179.76 213.226 180.307 212.522C180.698 212.053 181.011 211.506 181.402 211.037C181.793 210.49 182.184 210.02 182.575 209.473C183.435 208.378 184.295 207.362 185.077 206.345C185.468 205.876 185.937 205.329 186.328 204.782C186.875 204.156 187.344 203.531 187.891 202.983C188.204 202.67 188.517 202.28 188.83 201.889C189.377 201.263 189.924 200.638 190.472 200.012C190.863 199.621 191.254 199.152 191.645 198.761C192.036 198.37 192.505 197.901 192.896 197.432C193.834 196.493 194.772 195.477 195.789 194.46C196.805 193.522 197.743 192.506 198.76 191.567C199.229 191.098 199.698 190.707 200.167 190.316C200.558 189.925 201.027 189.534 201.418 189.144C202.044 188.596 202.591 188.049 203.217 187.58L204.311 186.641C204.859 186.172 205.406 185.703 206.032 185.234H206.11C206.657 184.687 207.126 184.296 207.674 183.827C208.69 183.045 209.785 182.185 210.801 181.324C211.349 180.934 211.896 180.543 212.365 180.152C212.834 179.761 213.303 179.448 213.851 179.057C214.554 178.51 215.258 178.04 215.962 177.571C216.275 177.337 216.744 177.024 217.135 176.789C217.526 176.477 217.995 176.164 218.386 175.929C218.777 175.695 219.089 175.46 219.48 175.226C221.983 173.505 224.563 171.863 227.221 170.378C227.69 170.065 228.238 169.752 228.785 169.44C229.176 169.205 229.567 168.97 229.88 168.814C230.193 168.658 230.505 168.423 230.896 168.267C231.365 167.954 231.913 167.719 232.382 167.485C232.773 167.25 233.164 167.016 233.633 166.859C234.337 166.468 235.119 166.077 235.822 165.686L236.917 165.139C238.637 164.279 240.357 163.419 241.921 162.715C242.468 162.481 243.016 162.168 243.641 161.933L248.567 159.666L396.113 308.54L387.824 313.701C387.512 313.935 387.121 314.17 386.808 314.405C386.495 314.639 386.182 314.796 385.87 315.03C385.557 315.265 385.244 315.499 384.931 315.734C384.619 316.047 384.306 316.281 383.915 316.516C371.248 326.133 359.05 336.767 347.713 348.027C336.375 359.286 325.663 371.405 315.889 383.994C315.342 384.776 314.795 385.402 314.325 386.105C314.091 386.418 313.935 386.653 313.778 386.887L313.622 387.122V387.278C313.387 387.435 313.231 387.669 313.153 387.825C313.153 387.982 313.074 388.06 312.996 388.138L313.309 387.747ZM139.883 328.792L139.335 347.01L62.8649 269.836L62.6303 267.099C62.6303 266.943 62.6303 266.787 62.6303 266.708C62.6303 266.552 62.6303 266.318 62.6303 266.161C62.6303 266.161 62.6303 265.379 62.6303 265.145V264.128L62.474 261.626C62.474 261.47 62.474 261.235 62.474 261.079V258.42C62.3958 258.42 62.3176 256.387 62.3176 256.387C62.3176 256.231 62.3176 255.996 62.3176 255.84V252.869C62.3176 251.149 62.3176 249.428 62.3176 247.63C62.3176 247.63 62.3176 247.083 62.3176 246.848C62.3176 246.848 62.3176 245.753 62.3176 245.519V243.33C62.3176 242.469 62.3176 241.609 62.3958 240.671C62.3958 239.107 62.5521 237.543 62.6303 235.98C62.6303 235.354 62.7086 234.65 62.7867 233.947V233.008C62.8649 232.539 62.9431 231.992 62.9431 231.523V231.21C63.0213 230.506 63.0995 229.881 63.1777 229.177V228.082C63.4122 226.91 63.4905 225.658 63.6469 224.486C63.725 223.704 63.8032 222.844 63.9596 221.984C64.2723 219.481 64.6633 216.901 64.9761 214.477C71.5441 172.645 88.1986 138.242 114.549 112.126C147.467 79.4423 188.986 67.6356 217.917 63.4133C229.098 61.7713 240.514 60.9894 251.851 60.9894C263.189 60.9894 254.901 60.9894 256.386 60.9894H257.716C258.185 60.9894 258.654 60.9894 259.123 60.9894H259.045H259.67H260.139H260.296H261.078C261.312 60.9894 261.625 60.9894 261.86 60.9894H262.485C263.111 60.9894 263.814 61.0676 264.44 61.1457H264.362H265.3C265.3 61.1457 265.456 61.1457 265.535 61.1457C265.691 61.1457 265.847 61.1457 266.004 61.1457H267.568C267.568 61.2239 267.724 61.3021 267.724 61.3021L269.679 61.4585H270.07L272.885 62.084L274.761 63.8042L343.1 132.768L356.47 146.217L507.769 298.923L415.113 304.631C414.722 304.631 414.331 304.631 413.94 304.709H413.08C412.767 304.787 412.454 304.865 412.22 304.865C411.516 304.865 410.891 305.022 410.265 305.1L409.405 305.256L408.545 305.413C408.389 305.413 408.154 305.413 407.998 305.491H407.763C407.216 305.647 406.747 305.725 406.199 305.882C405.886 305.882 405.574 306.038 405.339 306.116L404.948 306.195H404.87C404.323 306.273 403.854 306.351 403.306 306.351H400.022L252.555 157.555L264.596 153.567C265.065 153.41 265.535 153.254 265.926 153.176C266.317 153.02 266.786 152.941 267.177 152.785C267.646 152.629 268.193 152.472 268.662 152.316C269.444 152.081 270.226 151.847 271.008 151.612C271.399 151.534 271.868 151.378 272.259 151.221C273.119 150.987 274.057 150.752 274.996 150.517C275.699 150.361 276.481 150.126 277.185 149.97C280.469 149.188 283.831 148.406 287.115 147.703C287.506 147.624 287.975 147.546 288.366 147.468C288.757 147.468 289.148 147.312 289.539 147.233C289.93 147.155 290.321 147.077 290.712 146.999C292.667 146.608 294.621 146.295 296.654 145.982C296.654 145.982 297.593 145.826 297.905 145.826C298.218 145.826 298.609 145.748 299 145.67C303.457 145.044 308.148 144.497 312.762 144.106C313.153 144.106 313.544 144.106 314.013 144.028C314.404 144.028 314.795 144.028 315.186 143.949C315.577 143.949 315.967 143.949 316.358 143.871C318.47 143.715 320.424 143.637 322.379 143.48C323.005 143.48 323.63 143.48 324.256 143.402C327.149 143.324 330.042 143.246 332.778 143.246H333.873C335.515 143.246 337.235 143.246 338.955 143.246H341.223L342.943 143.402V139.102L330.902 139.336H329.885C329.651 139.336 329.416 139.336 329.182 139.336H325.976C325.663 139.414 323.708 139.493 323.708 139.493H321.597C320.424 139.649 319.251 139.727 318.079 139.805C317.297 139.805 316.593 139.884 315.811 139.962H314.404C314.404 140.04 312.371 140.274 312.371 140.274C312.293 140.274 312.136 140.274 312.058 140.274H311.902C311.511 140.274 311.12 140.353 310.807 140.353H310.572C310.181 140.353 309.869 140.431 309.478 140.509H309.399C308.93 140.509 308.539 140.587 308.148 140.665H307.914C307.523 140.665 307.21 140.744 306.819 140.822H306.741C305.803 140.9 304.864 141.056 303.926 141.135C303.222 141.213 302.519 141.291 301.815 141.369H301.737C301.189 141.369 300.72 141.526 300.173 141.604L299.313 141.76L298.766 141.916H298.218C297.514 141.995 296.889 142.151 296.185 142.229C294.778 142.464 293.292 142.698 291.807 142.933C291.259 143.011 290.79 143.089 290.399 143.168H290.165C289.774 143.246 289.383 143.324 288.992 143.402C287.506 143.715 286.021 143.949 284.535 144.262C284.144 144.34 283.675 144.419 283.206 144.575H282.658C281.876 144.888 281.016 145.044 280.234 145.2C279.843 145.279 278.827 145.513 278.827 145.513C276.403 146.061 273.979 146.686 271.555 147.39C271.555 147.39 269.913 147.859 269.835 147.859H269.6C269.21 148.015 268.74 148.172 268.349 148.25H268.115C267.646 148.406 267.255 148.563 266.786 148.719C265.456 149.11 264.205 149.501 262.954 149.892L260.921 150.596C260.687 150.674 260.452 150.752 260.218 150.83H260.061C259.827 150.987 259.514 151.065 259.279 151.143H259.201C258.967 151.221 258.81 151.299 258.576 151.378L258.107 151.534C254.901 152.707 251.617 153.88 248.567 155.209C227.299 163.966 208.69 176.164 193.287 191.489C177.805 206.815 165.451 225.346 156.537 246.457C155.208 249.507 153.957 252.791 152.784 255.996L152.628 256.387C152.628 256.622 152.471 256.778 152.393 257.013V257.169C152.237 257.404 152.158 257.638 152.08 257.951V258.107C151.924 258.342 151.846 258.577 151.767 258.889L151.455 259.671L151.064 260.844C150.595 262.095 150.204 263.424 149.813 264.676C149.656 265.066 149.344 266.239 149.344 266.239C149.187 266.63 149.109 267.021 149.031 267.412L148.405 269.445C147.702 271.869 147.076 274.293 146.451 276.717C146.372 277.264 146.216 277.655 146.138 278.046C145.903 278.906 145.747 279.688 145.59 280.548V280.783V280.939V281.095C145.512 281.565 145.356 281.956 145.278 282.425C144.965 283.91 144.652 285.318 144.339 286.803C144.261 287.194 144.027 288.211 144.027 288.211C143.948 288.68 143.87 289.149 143.792 289.618C143.479 291.104 143.245 292.589 143.01 293.997C142.932 294.622 142.776 295.326 142.697 295.952V296.264L142.541 296.89L142.385 297.985C142.306 298.532 142.228 299.001 142.15 299.548C142.072 300.33 141.915 301.034 141.837 301.738C141.681 302.676 141.603 303.614 141.525 304.553C141.525 305.022 141.446 305.491 141.368 305.882V306.038C141.368 306.429 141.29 306.742 141.212 307.133C141.212 307.602 141.134 307.993 141.055 308.384V308.54C141.055 308.931 140.977 309.322 140.899 309.713C140.899 309.948 140.899 310.026 140.899 310.182L140.743 312.293L140.586 313.779C140.586 314.483 140.508 315.187 140.43 315.89C140.352 317.141 140.273 318.314 140.195 319.487V321.442C140.117 321.442 140.039 322.849 140.039 322.849C140.039 323.24 140.039 323.631 140.039 324.022C140.039 324.96 139.961 327.071 139.961 327.071V328.792H139.883ZM169.126 12.0421C177.492 12.0421 186.015 12.6677 194.459 13.8405C216.978 17.0463 238.324 27.602 254.588 43.5529L268.115 56.7671L249.193 56.9235C248.567 56.9235 247.864 56.9235 247.16 56.9235H247.082C246.769 56.9235 246.534 56.9235 246.222 56.9235C245.518 56.9235 244.814 56.9235 244.11 56.9235H241.843C241.296 57.0017 240.748 57.0798 240.201 57.0798C239.263 57.0798 238.246 57.158 237.308 57.2362C236.682 57.2362 236.057 57.2362 235.431 57.3926H235.275C234.571 57.3926 233.867 57.4708 233.164 57.549H233.086C232.773 57.549 232.382 57.549 232.069 57.6272H231.991C231.6 57.6272 231.209 57.6272 230.896 57.7054H229.802C229.332 57.8617 228.003 57.9399 227.847 58.0181H227.69C226.518 58.1745 225.345 58.2527 224.172 58.4091C223.234 58.4873 222.295 58.6437 221.357 58.7218H221.279C220.81 58.7218 220.262 58.8782 219.793 58.9564H219.324C218.62 59.1128 217.917 59.191 217.213 59.3474C198.447 62.084 180.698 66.9318 164.591 73.8908C144.418 82.5699 126.59 94.3767 111.734 109.155C96.8778 123.933 84.8365 141.604 76.0009 161.699C68.9638 177.806 63.8814 195.477 60.9883 214.164C60.832 215.025 60.7538 215.885 60.5974 216.745C60.5974 217.214 60.3629 218.387 60.3629 218.387C60.2065 219.325 60.1283 220.263 59.9719 221.202C59.8155 222.374 59.6591 223.547 59.5809 224.642V225.424C59.4246 225.893 59.4246 226.284 59.3464 226.753C59.3464 227.144 59.3464 227.457 59.2681 227.691V228.082C59.1899 228.708 59.1118 229.412 59.0336 230.037C59.0336 230.819 58.8772 231.445 58.8772 232.148V232.383C58.8772 233.008 58.799 233.634 58.7208 234.181C58.7208 235.198 58.5645 236.136 58.5645 237.074C58.5645 237.7 58.5645 238.325 58.4863 238.873V240.984C58.3299 241.609 58.3298 242.313 58.3298 243.017C58.3298 243.329 58.3298 243.642 58.3298 243.955C58.3298 244.737 58.3298 245.441 58.3298 246.066L57.9389 264.91L44.8812 251.305C29.0867 234.885 18.6873 213.461 15.7161 190.942C14.6214 182.732 14.0741 174.444 14.0741 166.312C14.2305 123.776 29.7122 86.9486 60.05 56.8453C90.2316 26.9765 126.903 11.8076 169.204 11.8076L169.126 12.0421Z" fill="#7F7F7F"/>
<path d="M342.71 139.492C342.71 139.492 350.842 139.649 351.78 140.196C352.718 140.743 353.5 143.949 353.5 143.949C353.5 143.949 343.804 143.793 342.71 143.715C341.615 143.636 342.71 139.414 342.71 139.414V139.492Z" fill="#7F7F7F"/>
</svg>
