<svg width="1148" height="981" viewBox="0 0 1148 981" fill="none" xmlns="http://www.w3.org/2000/svg">
<path d="M485.45 665.603C411.281 691.813 218.33 692.371 564.08 723.042C747.732 743.717 50.4732 760.963 351.984 787.191C787.539 814.625 295.436 819.258 140.81 837.386C88.3987 843.531 272.482 849.508 468.947 857.762C760.879 870.027 465.325 877.382 350.227 882.471C239.803 887.354 -94.6845 903.192 29.3495 909.468C299.901 923.159 414.627 932.165 414.627 932.165C526.717 941.088 433.81 961.833 77.7985 971.202" stroke="#FEA90A" stroke-width="3" stroke-linecap="round"/>
<path d="M485.069 667.574C484.72 667.574 484.371 667.574 484.109 667.312C483.935 667.312 483.761 667.138 483.586 666.963C483.063 666.44 482.801 665.655 482.976 664.87L523.963 517.315V516.879C524.051 516.879 574.282 336.01 574.282 336.01L574.457 335.487L574.893 334.789L575.067 334.527L840.876 66.538L859.364 47.9628C878.376 28.7771 903.404 16.132 930.002 12.382C939.77 10.9867 949.537 10.2891 959.13 10.2891C1007.27 10.2891 1049.13 27.6434 1083.58 61.7416C1135.55 113.281 1139.82 173.455 1134.33 214.878C1132.59 228.134 1128.57 241.041 1122.64 253.163C1116.63 265.284 1108.87 276.36 1099.36 285.865L814.976 572.779H814.888C814.888 572.866 814.714 573.04 814.714 573.04H814.539C814.539 573.128 814.539 573.128 814.539 573.215H814.365L813.929 573.389L633.845 625.103C633.583 625.103 633.235 625.278 633.235 625.278L590.328 637.574L485.679 667.661H485.592H485.156L485.069 667.574ZM538.614 518.012C538.265 518.012 538.004 518.012 537.655 518.012H537.306C537.044 518.012 536.696 518.1 536.347 518.1C535.388 518.187 534.428 518.274 533.469 518.448L527.713 519.233L493.702 641.76L487.947 662.341L630.706 621.354L631.403 615.598C631.49 614.638 631.578 613.679 631.665 612.72C631.665 612.458 631.665 612.109 631.665 611.761V611.412C631.665 611.15 631.665 610.801 631.752 610.54C631.752 610.017 631.752 609.406 631.839 608.883C631.839 608.36 631.839 607.836 631.839 607.313C631.839 606.615 631.839 605.918 631.839 605.133C631.839 604.697 631.839 604.086 631.839 603.563C632.188 578.535 623.991 557.517 607.508 541.21C591.549 525.425 571.317 517.402 547.248 517.402C523.178 517.402 545.678 517.402 544.893 517.402C544.457 517.402 543.934 517.402 543.411 517.402C542.713 517.402 542.015 517.402 541.318 517.489C540.794 517.489 540.271 517.489 539.748 517.576C539.225 517.576 538.614 517.576 538.091 517.664L538.614 518.012ZM547.597 513.39C549.515 513.39 551.434 513.39 553.178 513.565C553.963 513.565 554.66 513.565 555.358 513.739C557.451 513.914 559.457 514.088 561.463 514.35C562.945 514.524 564.428 514.786 565.91 515.047C583.352 518.274 598.526 526.123 610.909 538.419C623.293 550.715 631.316 565.802 634.63 583.244C635.938 589.872 636.461 596.761 636.461 603.825C636.461 604.174 636.461 604.522 636.461 604.958C636.461 605.482 636.461 605.918 636.461 606.354C636.461 606.877 636.461 607.4 636.461 607.836L635.938 619.958L675.792 608.534L717.216 596.674L811.226 569.639L803.726 463.42C803.377 458.101 802.243 452.781 800.412 447.723V447.549L800.325 447.461C798.232 441.706 795.267 436.299 791.517 431.415C780.703 417.549 768.93 404.206 756.372 391.736C743.814 379.352 730.384 367.666 716.431 356.94C711.809 353.451 706.751 350.661 701.257 348.568C701.082 348.568 700.821 348.393 700.821 348.393H700.646L700.21 348.132H699.774C694.803 346.3 689.658 345.341 684.426 344.992L578.119 338.452L529.283 514.262L541.405 513.565C541.841 513.565 542.364 513.565 542.8 513.565C543.323 513.565 543.759 513.565 544.283 513.565H544.37C544.719 513.565 545.068 513.565 545.416 513.565H545.504C546.027 513.565 546.55 513.565 547.073 513.565H547.684L547.597 513.39ZM807.824 461.763C807.824 462.199 807.824 462.548 807.912 462.984L815.237 566.413L986.513 393.567V390.253V389.207V387.288C986.688 386.503 986.775 385.718 986.775 384.846C986.775 384.585 986.775 384.323 986.775 384.061C986.775 384.061 986.862 381.881 986.862 381.794C986.862 381.62 986.862 381.358 986.862 381.183C986.862 381.009 986.862 379.178 986.862 379.178C986.862 379.178 986.862 377.695 986.862 377.521V377.085C986.862 376.91 986.862 376.736 986.862 376.561C986.862 374.556 986.862 372.637 986.862 370.719C986.862 370.37 986.862 370.021 986.862 369.585C986.862 366.445 986.688 363.219 986.6 360.166C986.6 359.469 986.6 358.771 986.513 358.073C986.339 355.719 986.252 353.539 986.077 351.446C986.077 351.01 986.077 350.574 985.99 350.138C985.99 349.789 985.903 348.829 985.903 348.829C985.903 348.306 985.903 347.87 985.728 347.434C985.205 342.289 984.595 337.144 983.81 332.086C983.81 331.737 983.722 331.301 983.635 330.777C983.635 330.516 983.548 330.254 983.461 329.905V329.556C983.025 327.289 982.589 325.109 982.24 322.929L981.717 320.312C981.717 319.876 981.542 319.353 981.455 318.917C980.67 315.254 979.798 311.592 978.839 307.929C978.664 307.144 978.403 306.272 978.228 305.487C977.967 304.441 977.705 303.394 977.356 302.348C977.269 301.912 977.095 301.476 976.92 300.952C976.659 300.08 976.397 299.208 976.135 298.336C975.961 297.813 975.787 297.29 975.612 296.679C975.438 296.243 975.351 295.72 975.176 295.284C975.002 294.761 974.827 294.325 974.653 293.801L970.118 280.459L804.859 447.2L805.644 450.95V451.124L805.906 451.996V452.171V452.258C805.906 452.432 805.993 452.694 806.08 452.868V453.043C806.255 453.566 806.342 454.002 806.429 454.525C806.429 454.787 806.429 454.961 806.516 455.048V455.223C806.604 455.484 806.691 455.833 806.691 456.095C806.778 456.618 806.865 456.967 806.952 457.403C806.952 457.926 807.127 458.449 807.214 458.886C807.214 459.234 807.301 459.67 807.388 460.106V460.455C807.388 460.804 807.476 461.066 807.563 461.415V461.589L807.824 461.763ZM798.057 433.421L803.987 442.229L968.374 276.36L965.845 270.866C965.583 270.255 965.234 269.558 964.973 268.947C964.101 267.203 963.229 265.372 962.182 263.453L961.572 262.232C961.136 261.36 960.7 260.575 960.264 259.703C960.002 259.267 959.74 258.744 959.479 258.308C959.217 257.785 958.868 257.261 958.607 256.738C958.345 256.302 958.171 255.953 957.996 255.604C957.735 255.168 957.56 254.732 957.299 254.383C956.95 253.773 956.601 253.163 956.252 252.639C954.508 249.761 952.677 246.884 950.758 244.093C950.496 243.744 950.235 243.308 949.973 242.959C949.624 242.436 949.275 242 949.014 241.564C948.665 241.128 948.403 240.692 948.055 240.256C947.531 239.558 947.008 238.773 946.398 237.988C945.962 237.465 945.613 236.855 945.177 236.331C944.741 235.721 944.305 235.198 943.869 234.587C942.909 233.366 941.95 232.233 941.078 231.099C940.642 230.576 940.119 229.965 939.683 229.355C939.072 228.657 938.549 227.96 937.938 227.349C937.59 227 937.241 226.564 936.892 226.128C936.281 225.431 935.671 224.733 935.061 224.035C934.625 223.599 934.189 223.076 933.752 222.64C933.316 222.204 932.793 221.681 932.357 221.157C931.311 220.111 930.264 218.977 929.13 217.843C927.997 216.797 926.95 215.663 925.817 214.617C925.293 214.094 924.77 213.657 924.247 213.221C923.811 212.785 923.288 212.349 922.852 211.913C922.154 211.303 921.543 210.692 920.846 210.169L919.625 209.123C919.014 208.599 918.404 208.076 917.706 207.553H917.619C917.009 206.942 916.485 206.506 915.875 205.983C914.741 205.111 913.52 204.152 912.387 203.193C911.776 202.756 911.166 202.32 910.642 201.884C910.119 201.448 909.596 201.1 908.985 200.664C908.201 200.053 907.416 199.53 906.631 199.007C906.282 198.745 905.759 198.396 905.323 198.134C904.887 197.786 904.363 197.437 903.927 197.175C903.491 196.914 903.143 196.652 902.706 196.39C899.916 194.472 897.038 192.64 894.073 190.983C893.55 190.635 892.939 190.286 892.329 189.937C891.893 189.675 891.457 189.414 891.108 189.239C890.759 189.065 890.41 188.803 889.974 188.629C889.451 188.28 888.84 188.018 888.317 187.757C887.881 187.495 887.445 187.234 886.922 187.059C886.137 186.623 885.265 186.187 884.48 185.751L883.259 185.141C881.341 184.181 879.422 183.222 877.678 182.437C877.067 182.175 876.457 181.827 875.759 181.565L870.265 179.036L705.704 345.079L714.948 350.835C715.297 351.097 715.733 351.358 716.082 351.62C716.431 351.882 716.78 352.056 717.128 352.318C717.477 352.579 717.826 352.841 718.175 353.103C718.524 353.451 718.873 353.713 719.309 353.975C733.436 364.701 747.041 376.561 759.686 389.119C772.331 401.677 784.278 415.194 795.179 429.235C795.79 430.107 796.4 430.805 796.924 431.59C797.185 431.938 797.36 432.2 797.534 432.462L797.708 432.723V432.898C797.97 433.072 798.144 433.334 798.232 433.508C798.232 433.683 798.319 433.77 798.406 433.857L798.057 433.421ZM991.484 367.666L992.094 387.986L1077.38 301.912L1077.65 298.859C1077.65 298.685 1077.65 298.511 1077.65 298.423C1077.65 298.249 1077.65 297.987 1077.65 297.813C1077.65 297.813 1077.65 296.941 1077.65 296.679V295.545L1077.82 292.755C1077.82 292.58 1077.82 292.319 1077.82 292.144V289.179C1077.91 289.179 1077.99 286.912 1077.99 286.912C1077.99 286.738 1077.99 286.476 1077.99 286.301V282.988C1077.99 281.069 1077.99 279.15 1077.99 277.145C1077.99 277.145 1077.99 276.534 1077.99 276.273C1077.99 276.273 1077.99 275.052 1077.99 274.79V272.348C1077.99 271.389 1077.99 270.43 1077.91 269.383C1077.91 267.639 1077.73 265.895 1077.65 264.151C1077.65 263.453 1077.56 262.668 1077.47 261.883V260.837C1077.38 260.314 1077.3 259.703 1077.3 259.18V258.831C1077.21 258.046 1077.12 257.349 1077.03 256.564V255.343C1076.77 254.035 1076.69 252.639 1076.51 251.331C1076.42 250.459 1076.34 249.5 1076.16 248.541C1075.81 245.75 1075.38 242.872 1075.03 240.169C1067.7 193.512 1049.13 155.141 1019.74 126.014C983.025 89.5609 936.717 76.3925 904.451 71.6833C891.98 69.8519 879.248 68.9799 866.602 68.9799C853.957 68.9799 863.201 68.9799 861.544 68.9799H860.062C859.539 68.9799 859.015 68.9799 858.492 68.9799H858.579H857.882H857.358H857.184H856.312C856.05 68.9799 855.702 68.9799 855.44 68.9799H854.742C854.045 68.9799 853.26 69.0671 852.562 69.1543H852.649H851.603C851.603 69.1543 851.428 69.1543 851.341 69.1543C851.167 69.1543 850.992 69.1543 850.818 69.1543H849.074C849.074 69.2415 848.899 69.3287 848.899 69.3287L846.719 69.5031H846.283L843.144 70.2008L841.051 72.1193L764.831 149.037L749.919 164.036L581.172 334.353L684.513 340.719C684.949 340.719 685.385 340.719 685.821 340.806H686.78C687.129 340.894 687.478 340.981 687.739 340.981C688.524 340.981 689.222 341.155 689.92 341.242L690.879 341.417L691.838 341.591C692.013 341.591 692.274 341.591 692.449 341.678H692.71C693.321 341.853 693.844 341.94 694.454 342.114C694.803 342.114 695.152 342.289 695.414 342.376L695.85 342.463H695.937C696.547 342.55 697.071 342.638 697.681 342.638H701.344L865.818 176.681L852.388 172.234C851.864 172.059 851.341 171.885 850.905 171.798C850.469 171.623 849.946 171.536 849.51 171.362C848.987 171.187 848.376 171.013 847.853 170.838C846.981 170.577 846.109 170.315 845.237 170.054C844.801 169.966 844.277 169.792 843.841 169.618C842.882 169.356 841.835 169.094 840.789 168.833C840.004 168.658 839.132 168.397 838.347 168.222C834.684 167.35 830.935 166.478 827.272 165.693C826.836 165.606 826.313 165.519 825.876 165.432C825.44 165.432 825.004 165.257 824.568 165.17C824.132 165.083 823.696 164.996 823.26 164.908C821.08 164.472 818.9 164.123 816.632 163.775C816.632 163.775 815.586 163.6 815.237 163.6C814.888 163.6 814.452 163.513 814.016 163.426C809.045 162.728 803.813 162.118 798.668 161.682C798.232 161.682 797.796 161.682 797.272 161.594C796.836 161.594 796.4 161.594 795.964 161.507C795.528 161.507 795.092 161.507 794.656 161.42C792.301 161.246 790.121 161.158 787.941 160.984C787.243 160.984 786.546 160.984 785.848 160.897C782.621 160.81 779.395 160.722 776.342 160.722H775.122C773.29 160.722 771.372 160.722 769.453 160.722H766.924L765.005 160.897V156.1L778.435 156.362H779.569C779.831 156.362 780.092 156.362 780.354 156.362H783.93C784.278 156.449 786.459 156.536 786.459 156.536H788.813C790.121 156.711 791.429 156.798 792.738 156.885C793.61 156.885 794.395 156.972 795.267 157.06H796.836C796.836 157.147 799.104 157.408 799.104 157.408C799.191 157.408 799.365 157.408 799.453 157.408H799.627C800.063 157.408 800.499 157.496 800.848 157.496H801.109C801.546 157.496 801.894 157.583 802.33 157.67H802.418C802.941 157.67 803.377 157.757 803.813 157.845H804.075C804.511 157.845 804.859 157.932 805.295 158.019H805.383C806.429 158.106 807.476 158.281 808.522 158.368C809.307 158.455 810.092 158.542 810.877 158.629H810.964C811.574 158.629 812.098 158.804 812.708 158.891L813.667 159.065L814.278 159.24H814.888C815.673 159.327 816.371 159.501 817.156 159.589C818.725 159.85 820.382 160.112 822.039 160.374C822.65 160.461 823.173 160.548 823.609 160.635H823.871C824.307 160.722 824.743 160.81 825.179 160.897C826.836 161.246 828.493 161.507 830.15 161.856C830.586 161.943 831.109 162.03 831.632 162.205H832.243C833.115 162.554 834.074 162.728 834.946 162.903C835.382 162.99 836.516 163.251 836.516 163.251C839.219 163.862 841.923 164.56 844.626 165.344C844.626 165.344 846.457 165.868 846.545 165.868H846.806C847.242 166.042 847.766 166.216 848.202 166.304H848.463C848.987 166.478 849.423 166.652 849.946 166.827C851.428 167.263 852.824 167.699 854.219 168.135L856.486 168.92C856.748 169.007 857.01 169.094 857.271 169.182H857.446C857.707 169.356 858.056 169.443 858.318 169.53H858.405C858.667 169.618 858.841 169.705 859.103 169.792L859.626 169.966C863.201 171.275 866.864 172.583 870.265 174.065C893.986 183.832 914.741 197.437 931.921 214.53C949.188 231.622 962.967 252.29 972.909 275.837C974.391 279.238 975.787 282.9 977.095 286.476L977.269 286.912C977.269 287.174 977.443 287.348 977.531 287.61V287.784C977.705 288.046 977.792 288.307 977.88 288.656V288.831C978.054 289.092 978.141 289.354 978.228 289.703L978.577 290.575L979.013 291.883C979.536 293.278 979.973 294.761 980.409 296.156C980.583 296.592 980.932 297.9 980.932 297.9C981.106 298.336 981.193 298.772 981.281 299.208L981.978 301.476C982.763 304.179 983.461 306.882 984.159 309.586C984.246 310.196 984.42 310.632 984.507 311.068C984.769 312.028 984.943 312.9 985.118 313.859V314.121V314.295V314.47C985.205 314.993 985.379 315.429 985.467 315.952C985.815 317.609 986.164 319.179 986.513 320.836C986.6 321.272 986.862 322.405 986.862 322.405C986.949 322.929 987.036 323.452 987.124 323.975C987.472 325.632 987.734 327.289 987.996 328.859C988.083 329.556 988.257 330.341 988.344 331.039V331.388L988.519 332.086L988.693 333.306C988.781 333.917 988.868 334.44 988.955 335.051C989.042 335.923 989.217 336.708 989.304 337.492C989.478 338.539 989.565 339.585 989.653 340.632C989.653 341.155 989.74 341.678 989.827 342.114V342.289C989.827 342.725 989.914 343.074 990.001 343.51C990.001 344.033 990.089 344.469 990.176 344.905V345.079C990.176 345.516 990.263 345.952 990.35 346.388C990.35 346.649 990.35 346.736 990.35 346.911L990.525 349.265L990.699 350.922C990.699 351.707 990.786 352.492 990.874 353.277C990.961 354.672 991.048 355.98 991.135 357.289V359.469C991.222 359.469 991.31 361.038 991.31 361.038C991.31 361.475 991.31 361.911 991.31 362.347C991.31 363.393 991.397 365.748 991.397 365.748V367.666H991.484ZM958.868 14.3878C949.537 14.3878 940.031 15.0855 930.613 16.3936C905.497 19.9691 881.689 31.7422 863.55 49.5325L848.463 64.2706L869.568 64.4451C870.265 64.4451 871.05 64.4451 871.835 64.4451H871.922C872.271 64.4451 872.533 64.4451 872.881 64.4451C873.666 64.4451 874.451 64.4451 875.236 64.4451H877.765C878.376 64.5323 878.986 64.6195 879.596 64.6195C880.643 64.6195 881.777 64.7067 882.823 64.7939C883.521 64.7939 884.218 64.7939 884.916 64.9683H885.091C885.875 64.9683 886.66 65.0555 887.445 65.1427H887.532C887.881 65.1427 888.317 65.1427 888.666 65.2299H888.753C889.189 65.2299 889.625 65.2299 889.974 65.3171H891.195C891.718 65.4916 893.201 65.5788 893.375 65.666H893.55C894.858 65.8404 896.166 65.9276 897.474 66.102C898.521 66.1892 899.567 66.3636 900.613 66.4508H900.701C901.224 66.4508 901.834 66.6253 902.358 66.7125H902.881C903.666 66.8869 904.451 66.9741 905.236 67.1485C926.165 70.2008 945.962 75.6076 963.926 83.3691C986.426 93.0492 1006.31 106.218 1022.88 122.7C1039.45 139.182 1052.88 158.891 1062.73 181.303C1070.58 199.268 1076.25 218.977 1079.48 239.82C1079.65 240.779 1079.74 241.738 1079.91 242.698C1079.91 243.221 1080.17 244.529 1080.17 244.529C1080.35 245.575 1080.44 246.622 1080.61 247.668C1080.78 248.977 1080.96 250.285 1081.05 251.506V252.378C1081.22 252.901 1081.22 253.337 1081.31 253.86C1081.31 254.296 1081.31 254.645 1081.4 254.907V255.343C1081.48 256.04 1081.57 256.825 1081.66 257.523C1081.66 258.395 1081.83 259.093 1081.83 259.878V260.139C1081.83 260.837 1081.92 261.534 1082.01 262.145C1082.01 263.279 1082.18 264.325 1082.18 265.372C1082.18 266.069 1082.18 266.767 1082.27 267.377V269.732C1082.44 270.43 1082.44 271.215 1082.44 271.999C1082.44 272.348 1082.44 272.697 1082.44 273.046C1082.44 273.918 1082.44 274.703 1082.44 275.401L1082.88 296.418L1097.44 281.243C1115.06 262.93 1126.66 239.035 1129.97 213.919C1131.19 204.762 1131.8 195.518 1131.8 186.449C1131.63 139.008 1114.36 97.9328 1080.52 64.3578C1046.86 31.0445 1005.96 14.1262 958.781 14.1262L958.868 14.3878Z" fill="#7F7F7F"/>
<path d="M765.269 156.533C765.269 156.533 756.199 156.707 755.153 157.317C754.106 157.928 753.234 161.503 753.234 161.503C753.234 161.503 764.048 161.329 765.269 161.242C766.49 161.155 765.269 156.445 765.269 156.445V156.533Z" fill="#7F7F7F"/>
</svg>
