<svg width="1029" height="879" viewBox="0 0 1029 879" fill="none" xmlns="http://www.w3.org/2000/svg">
<path d="M435.36 595.916C368.86 619.416 195.86 619.916 505.86 647.416C670.523 665.953 45.3604 681.416 315.695 704.932C706.214 729.53 264.994 733.683 126.356 749.937C79.3643 755.446 244.413 760.805 420.564 768.206C682.311 779.203 417.316 785.798 314.12 790.36C215.114 794.738 -84.7881 808.939 26.4208 814.566C268.997 826.841 371.86 834.916 371.86 834.916C472.36 842.916 389.06 861.516 69.8602 869.916" stroke="#7F7F7F" stroke-width="3" stroke-linecap="round"/>
<path d="M435.019 597.689C434.706 597.689 434.393 597.689 434.158 597.454C434.002 597.454 433.846 597.298 433.689 597.141C433.22 596.672 432.986 595.968 433.142 595.265L469.892 462.966V462.576C469.97 462.576 515.007 300.409 515.007 300.409L515.164 299.939L515.555 299.314L515.711 299.079L754.036 58.8L770.612 42.1455C787.658 24.9436 810.098 13.6059 833.946 10.2438C842.704 8.99271 851.461 8.36719 860.062 8.36719C903.223 8.36719 940.754 23.9271 971.64 54.4996C1018.24 100.71 1022.07 154.662 1017.15 191.802C1015.58 203.687 1011.99 215.259 1006.67 226.128C1001.27 236.996 994.315 246.926 985.792 255.449L730.813 512.696H730.735C730.735 512.774 730.579 512.93 730.579 512.93H730.422C730.422 513.008 730.422 513.008 730.422 513.087H730.266L729.875 513.243L568.411 559.61C568.177 559.61 567.864 559.766 567.864 559.766L529.394 570.791L435.566 597.767H435.488H435.097L435.019 597.689ZM483.028 463.592C482.715 463.592 482.48 463.592 482.167 463.592H481.855C481.62 463.592 481.307 463.67 480.995 463.67C480.134 463.748 479.274 463.827 478.414 463.983L473.254 464.687L442.759 574.544L437.599 592.997L565.597 556.248L566.222 551.087C566.3 550.227 566.379 549.367 566.457 548.507C566.457 548.272 566.457 547.96 566.457 547.647V547.334C566.457 547.099 566.457 546.787 566.535 546.552C566.535 546.083 566.535 545.536 566.613 545.066C566.613 544.597 566.613 544.128 566.613 543.659C566.613 543.034 566.613 542.408 566.613 541.704C566.613 541.313 566.613 540.766 566.613 540.297C566.926 517.856 559.576 499.012 544.798 484.391C530.489 470.238 512.349 463.045 490.768 463.045C469.188 463.045 489.361 463.045 488.657 463.045C488.266 463.045 487.797 463.045 487.328 463.045C486.702 463.045 486.077 463.045 485.451 463.123C484.982 463.123 484.513 463.123 484.044 463.201C483.575 463.201 483.028 463.201 482.558 463.279L483.028 463.592ZM491.081 459.448C492.801 459.448 494.522 459.448 496.085 459.604C496.789 459.604 497.415 459.604 498.04 459.761C499.917 459.917 501.715 460.073 503.513 460.308C504.843 460.464 506.172 460.699 507.501 460.934C523.139 463.827 536.744 470.864 547.847 481.889C558.95 492.913 566.144 506.44 569.115 522.078C570.288 528.021 570.757 534.198 570.757 540.531C570.757 540.844 570.757 541.157 570.757 541.548C570.757 542.017 570.757 542.408 570.757 542.799C570.757 543.268 570.757 543.737 570.757 544.128L570.288 554.997L606.021 544.754L643.162 534.12L727.451 509.881L720.727 414.645C720.414 409.875 719.397 405.106 717.755 400.57V400.414L717.677 400.336C715.801 395.175 713.142 390.328 709.78 385.949C700.084 373.517 689.529 361.553 678.269 350.372C667.01 339.269 654.968 328.792 642.458 319.174C638.314 316.047 633.779 313.545 628.853 311.668C628.696 311.668 628.462 311.512 628.462 311.512H628.305L627.914 311.277H627.523C623.067 309.635 618.453 308.775 613.762 308.462L518.448 302.598L474.661 460.23L485.53 459.604C485.921 459.604 486.39 459.604 486.781 459.604C487.25 459.604 487.641 459.604 488.11 459.604H488.188C488.501 459.604 488.814 459.604 489.126 459.604H489.205C489.674 459.604 490.143 459.604 490.612 459.604H491.159L491.081 459.448ZM724.401 413.159C724.401 413.55 724.401 413.863 724.48 414.254L731.048 506.988L884.614 352.014V349.043V348.105V346.385C884.77 345.681 884.848 344.977 884.848 344.195C884.848 343.961 884.848 343.726 884.848 343.491C884.848 343.491 884.926 341.537 884.926 341.459C884.926 341.302 884.926 341.068 884.926 340.911C884.926 340.755 884.926 339.113 884.926 339.113C884.926 339.113 884.926 337.784 884.926 337.627V337.236C884.926 337.08 884.926 336.923 884.926 336.767C884.926 334.969 884.926 333.249 884.926 331.528C884.926 331.216 884.926 330.903 884.926 330.512C884.926 327.697 884.77 324.804 884.692 322.067C884.692 321.442 884.692 320.816 884.614 320.191C884.457 318.08 884.379 316.125 884.223 314.248C884.223 313.857 884.223 313.466 884.145 313.075C884.145 312.763 884.066 311.903 884.066 311.903C884.066 311.433 884.066 311.042 883.91 310.651C883.441 306.038 882.894 301.425 882.19 296.89C882.19 296.577 882.112 296.186 882.033 295.717C882.033 295.483 881.955 295.248 881.877 294.935V294.622C881.486 292.589 881.095 290.635 880.782 288.68L880.313 286.334C880.313 285.943 880.157 285.474 880.079 285.083C879.375 281.799 878.593 278.515 877.733 275.231C877.577 274.527 877.342 273.746 877.186 273.042C876.951 272.104 876.717 271.165 876.404 270.227C876.326 269.836 876.169 269.445 876.013 268.976C875.778 268.194 875.544 267.412 875.309 266.63C875.153 266.161 874.996 265.692 874.84 265.145C874.684 264.754 874.605 264.285 874.449 263.894C874.293 263.424 874.136 263.033 873.98 262.564L869.914 250.601L721.743 400.101L722.447 403.464V403.62L722.681 404.402V404.558V404.636C722.681 404.793 722.759 405.027 722.838 405.184V405.34C722.994 405.809 723.072 406.2 723.15 406.669C723.15 406.904 723.15 407.06 723.229 407.139V407.295C723.307 407.529 723.385 407.842 723.385 408.077C723.463 408.546 723.541 408.859 723.62 409.25C723.62 409.719 723.776 410.188 723.854 410.579C723.854 410.892 723.932 411.283 724.011 411.674V411.986C724.011 412.299 724.089 412.534 724.167 412.846V413.003L724.401 413.159ZM715.644 387.747L720.961 395.645L868.35 246.926L866.083 242C865.848 241.453 865.535 240.827 865.301 240.28C864.519 238.716 863.737 237.074 862.799 235.354L862.251 234.259C861.86 233.478 861.469 232.774 861.078 231.992C860.844 231.601 860.609 231.132 860.375 230.741C860.14 230.272 859.827 229.803 859.593 229.333C859.358 228.942 859.202 228.63 859.045 228.317C858.811 227.926 858.655 227.535 858.42 227.222C858.107 226.675 857.794 226.128 857.482 225.658C855.918 223.078 854.276 220.498 852.556 217.996C852.321 217.683 852.087 217.292 851.852 216.979C851.539 216.51 851.226 216.119 850.992 215.728C850.679 215.337 850.444 214.946 850.132 214.555C849.663 213.93 849.193 213.226 848.646 212.522C848.255 212.053 847.942 211.506 847.551 211.037C847.16 210.49 846.77 210.02 846.379 209.473C845.518 208.378 844.658 207.362 843.876 206.345C843.486 205.876 843.016 205.329 842.625 204.782C842.078 204.156 841.609 203.531 841.062 202.983C840.749 202.67 840.436 202.28 840.123 201.889C839.576 201.263 839.029 200.638 838.481 200.012C838.09 199.621 837.699 199.152 837.309 198.761C836.918 198.37 836.448 197.901 836.057 197.432C835.119 196.493 834.181 195.477 833.164 194.46C832.148 193.522 831.21 192.506 830.193 191.567C829.724 191.098 829.255 190.707 828.786 190.316C828.395 189.925 827.926 189.534 827.535 189.144C826.909 188.596 826.362 188.049 825.736 187.58L824.642 186.641C824.094 186.172 823.547 185.703 822.921 185.234H822.843C822.296 184.687 821.827 184.296 821.279 183.827C820.263 183.045 819.168 182.185 818.152 181.324C817.604 180.934 817.057 180.543 816.588 180.152C816.119 179.761 815.65 179.448 815.102 179.057C814.399 178.51 813.695 178.04 812.991 177.571C812.678 177.337 812.209 177.024 811.818 176.789C811.427 176.477 810.958 176.164 810.567 175.929C810.176 175.695 809.864 175.46 809.473 175.226C806.971 173.505 804.39 171.863 801.732 170.378C801.263 170.065 800.715 169.752 800.168 169.44C799.777 169.205 799.386 168.97 799.073 168.814C798.761 168.658 798.448 168.423 798.057 168.267C797.588 167.954 797.04 167.719 796.571 167.485C796.18 167.25 795.789 167.016 795.32 166.859C794.617 166.468 793.835 166.077 793.131 165.686L792.036 165.139C790.316 164.279 788.596 163.419 787.032 162.715C786.485 162.481 785.937 162.168 785.312 161.933L780.386 159.666L632.84 308.54L641.129 313.701C641.441 313.935 641.832 314.17 642.145 314.405C642.458 314.639 642.771 314.796 643.083 315.03C643.396 315.265 643.709 315.499 644.022 315.734C644.334 316.047 644.647 316.281 645.038 316.516C657.705 326.133 669.903 336.767 681.24 348.027C692.578 359.286 703.29 371.405 713.064 383.994C713.611 384.776 714.159 385.402 714.628 386.105C714.862 386.418 715.019 386.653 715.175 386.887L715.331 387.122V387.278C715.566 387.435 715.722 387.669 715.801 387.825C715.801 387.982 715.879 388.06 715.957 388.138L715.644 387.747ZM889.071 328.792L889.618 347.01L966.088 269.836L966.323 267.099C966.323 266.943 966.323 266.787 966.323 266.708C966.323 266.552 966.323 266.318 966.323 266.161C966.323 266.161 966.323 265.379 966.323 265.145V264.128L966.479 261.626C966.479 261.47 966.479 261.235 966.479 261.079V258.42C966.557 258.42 966.635 256.387 966.635 256.387C966.635 256.231 966.635 255.996 966.635 255.84V252.869C966.635 251.149 966.635 249.428 966.635 247.63C966.635 247.63 966.635 247.083 966.635 246.848C966.635 246.848 966.635 245.753 966.635 245.519V243.33C966.635 242.469 966.636 241.609 966.557 240.671C966.557 239.107 966.401 237.543 966.323 235.98C966.323 235.354 966.245 234.65 966.166 233.947V233.008C966.088 232.539 966.01 231.992 966.01 231.523V231.21C965.932 230.506 965.854 229.881 965.775 229.177V228.082C965.541 226.91 965.463 225.658 965.306 224.486C965.228 223.704 965.15 222.844 964.994 221.984C964.681 219.481 964.29 216.901 963.977 214.477C957.409 172.645 940.754 138.242 914.404 112.126C881.486 79.4423 839.967 67.6356 811.036 63.4133C799.855 61.7713 788.439 60.9894 777.102 60.9894C765.764 60.9894 774.052 60.9894 772.567 60.9894H771.238C770.768 60.9894 770.299 60.9894 769.83 60.9894H769.908H769.283H768.814H768.657H767.875C767.641 60.9894 767.328 60.9894 767.093 60.9894H766.468C765.842 60.9894 765.139 61.0676 764.513 61.1457H764.591H763.653C763.653 61.1457 763.497 61.1457 763.419 61.1457C763.262 61.1457 763.106 61.1457 762.949 61.1457H761.386C761.386 61.2239 761.229 61.3021 761.229 61.3021L759.274 61.4585H758.883L756.069 62.084L754.192 63.8042L685.854 132.768L672.483 146.217L521.184 298.923L613.84 304.631C614.231 304.631 614.622 304.631 615.013 304.709H615.873C616.186 304.787 616.499 304.865 616.733 304.865C617.437 304.865 618.062 305.022 618.688 305.1L619.548 305.256L620.408 305.413C620.565 305.413 620.799 305.413 620.955 305.491H621.19C621.737 305.647 622.207 305.725 622.754 305.882C623.067 305.882 623.379 306.038 623.614 306.116L624.005 306.195H624.083C624.63 306.273 625.1 306.351 625.647 306.351H628.931L776.398 157.555L764.357 153.567C763.888 153.41 763.419 153.254 763.028 153.176C762.637 153.02 762.167 152.941 761.777 152.785C761.307 152.629 760.76 152.472 760.291 152.316C759.509 152.081 758.727 151.847 757.945 151.612C757.554 151.534 757.085 151.378 756.694 151.221C755.834 150.987 754.896 150.752 753.957 150.517C753.254 150.361 752.472 150.126 751.768 149.97C748.484 149.188 745.122 148.406 741.838 147.703C741.447 147.624 740.978 147.546 740.587 147.468C740.196 147.468 739.805 147.312 739.414 147.233C739.023 147.155 738.632 147.077 738.241 146.999C736.286 146.608 734.332 146.295 732.299 145.982C732.299 145.982 731.36 145.826 731.048 145.826C730.735 145.826 730.344 145.748 729.953 145.67C725.496 145.044 720.805 144.497 716.191 144.106C715.801 144.106 715.41 144.106 714.94 144.028C714.549 144.028 714.159 144.028 713.768 143.949C713.377 143.949 712.986 143.949 712.595 143.871C710.484 143.715 708.529 143.637 706.574 143.48C705.949 143.48 705.323 143.48 704.697 143.402C701.804 143.324 698.911 143.246 696.175 143.246H695.08C693.438 143.246 691.718 143.246 689.998 143.246H687.73L686.01 143.402V139.102L698.051 139.336H699.068C699.302 139.336 699.537 139.336 699.771 139.336H702.977C703.29 139.414 705.245 139.493 705.245 139.493H707.356C708.529 139.649 709.702 139.727 710.875 139.805C711.656 139.805 712.36 139.884 713.142 139.962H714.549C714.549 140.04 716.582 140.274 716.582 140.274C716.661 140.274 716.817 140.274 716.895 140.274H717.052C717.443 140.274 717.833 140.353 718.146 140.353H718.381C718.772 140.353 719.085 140.431 719.475 140.509H719.554C720.023 140.509 720.414 140.587 720.805 140.665H721.039C721.43 140.665 721.743 140.744 722.134 140.822H722.212C723.15 140.9 724.089 141.056 725.027 141.135C725.731 141.213 726.434 141.291 727.138 141.369H727.216C727.764 141.369 728.233 141.526 728.78 141.604L729.64 141.76L730.188 141.916H730.735C731.439 141.995 732.064 142.151 732.768 142.229C734.175 142.464 735.661 142.698 737.147 142.933C737.694 143.011 738.163 143.089 738.554 143.168H738.789C739.179 143.246 739.57 143.324 739.961 143.402C741.447 143.715 742.933 143.949 744.418 144.262C744.809 144.34 745.278 144.419 745.747 144.575H746.295C747.077 144.888 747.937 145.044 748.719 145.2C749.11 145.279 750.126 145.513 750.126 145.513C752.55 146.061 754.974 146.686 757.398 147.39C757.398 147.39 759.04 147.859 759.118 147.859H759.353C759.744 148.015 760.213 148.172 760.604 148.25H760.838C761.307 148.406 761.698 148.563 762.167 148.719C763.497 149.11 764.748 149.501 765.999 149.892L768.032 150.596C768.266 150.674 768.501 150.752 768.735 150.83H768.892C769.126 150.987 769.439 151.065 769.674 151.143H769.752C769.987 151.221 770.143 151.299 770.377 151.378L770.847 151.534C774.052 152.707 777.336 153.88 780.386 155.209C801.654 163.966 820.263 176.164 835.667 191.489C851.148 206.815 863.502 225.346 872.416 246.457C873.745 249.507 874.996 252.791 876.169 255.996L876.326 256.387C876.326 256.622 876.482 256.778 876.56 257.013V257.169C876.716 257.404 876.795 257.638 876.873 257.951V258.107C877.029 258.342 877.107 258.577 877.186 258.889L877.498 259.671L877.889 260.844C878.358 262.095 878.749 263.424 879.14 264.676C879.297 265.066 879.61 266.239 879.61 266.239C879.766 266.63 879.844 267.021 879.922 267.412L880.548 269.445C881.252 271.869 881.877 274.293 882.503 276.717C882.581 277.264 882.737 277.655 882.815 278.046C883.05 278.906 883.206 279.688 883.363 280.548V280.783V280.939V281.095C883.441 281.565 883.597 281.956 883.675 282.425C883.988 283.91 884.301 285.318 884.614 286.803C884.692 287.194 884.926 288.211 884.926 288.211C885.005 288.68 885.083 289.149 885.161 289.618C885.474 291.104 885.708 292.589 885.943 293.997C886.021 294.622 886.178 295.326 886.256 295.952V296.264L886.412 296.89L886.569 297.985C886.647 298.532 886.725 299.001 886.803 299.548C886.881 300.33 887.038 301.034 887.116 301.738C887.272 302.676 887.35 303.614 887.429 304.553C887.429 305.022 887.507 305.491 887.585 305.882V306.038C887.585 306.429 887.663 306.742 887.741 307.133C887.741 307.602 887.82 307.993 887.898 308.384V308.54C887.898 308.931 887.976 309.322 888.054 309.713C888.054 309.948 888.054 310.026 888.054 310.182L888.211 312.293L888.367 313.779C888.367 314.483 888.445 315.187 888.523 315.89C888.601 317.141 888.68 318.314 888.758 319.487V321.442C888.836 321.442 888.914 322.849 888.914 322.849C888.914 323.24 888.914 323.631 888.914 324.022C888.914 324.96 888.992 327.071 888.992 327.071V328.792H889.071ZM859.827 12.0421C851.461 12.0421 842.938 12.6677 834.494 13.8405C811.975 17.0463 790.629 27.602 774.365 43.5529L760.838 56.7671L779.76 56.9235C780.386 56.9235 781.09 56.9235 781.793 56.9235H781.871C782.184 56.9235 782.419 56.9235 782.732 56.9235C783.435 56.9235 784.139 56.9235 784.843 56.9235H787.11C787.658 57.0017 788.205 57.0798 788.752 57.0798C789.69 57.0798 790.707 57.158 791.645 57.2362C792.271 57.2362 792.896 57.2362 793.522 57.3926H793.678C794.382 57.3926 795.086 57.4708 795.789 57.549H795.868C796.18 57.549 796.571 57.549 796.884 57.6272H796.962C797.353 57.6272 797.744 57.6272 798.057 57.7054H799.152C799.621 57.8617 800.95 57.9399 801.106 58.0181H801.263C802.436 58.1745 803.608 58.2527 804.781 58.4091C805.72 58.4873 806.658 58.6437 807.596 58.7218H807.674C808.143 58.7218 808.691 58.8782 809.16 58.9564H809.629C810.333 59.1128 811.037 59.191 811.74 59.3474C830.506 62.084 848.255 66.9318 864.362 73.8908C884.536 82.5699 902.363 94.3767 917.219 109.155C932.075 123.933 944.117 141.604 952.952 161.699C959.989 177.806 965.072 195.477 967.965 214.164C968.121 215.025 968.199 215.885 968.356 216.745C968.356 217.214 968.59 218.387 968.59 218.387C968.747 219.325 968.825 220.263 968.981 221.202C969.138 222.374 969.294 223.547 969.372 224.642V225.424C969.529 225.893 969.529 226.284 969.607 226.753C969.607 227.144 969.607 227.457 969.685 227.691V228.082C969.763 228.708 969.841 229.412 969.92 230.037C969.92 230.819 970.076 231.445 970.076 232.148V232.383C970.076 233.008 970.154 233.634 970.232 234.181C970.232 235.198 970.389 236.136 970.389 237.074C970.389 237.7 970.389 238.325 970.467 238.873V240.984C970.623 241.609 970.623 242.313 970.623 243.017C970.623 243.329 970.623 243.642 970.623 243.955C970.623 244.737 970.623 245.441 970.623 246.066L971.014 264.91L984.072 251.305C999.866 234.885 1010.27 213.461 1013.24 190.942C1014.33 182.732 1014.88 174.444 1014.88 166.312C1014.72 123.776 999.241 86.9486 968.903 56.8453C938.722 26.9765 902.05 11.8076 859.749 11.8076L859.827 12.0421Z" fill="#7F7F7F"/>
<path d="M686.243 139.492C686.243 139.492 678.112 139.649 677.173 140.196C676.235 140.743 675.453 143.949 675.453 143.949C675.453 143.949 685.149 143.793 686.243 143.715C687.338 143.636 686.243 139.414 686.243 139.414V139.492Z" fill="#7F7F7F"/>
</svg>
