<svg width="1148" height="980" viewBox="0 0 1148 980" fill="none" xmlns="http://www.w3.org/2000/svg">
<path d="M662.55 664.641C736.719 690.851 929.669 691.409 583.92 722.08C400.269 742.755 1097.52 760.001 796.015 786.229C360.462 813.664 852.563 818.297 1007.19 836.425C1059.6 842.569 875.517 848.547 679.052 856.801C387.121 869.066 682.675 876.421 797.772 881.51C908.195 886.392 1242.68 902.231 1118.65 908.507C848.098 922.198 733.373 931.204 733.373 931.204C621.283 940.127 714.189 960.872 1070.2 970.241" stroke="#FEA90A" stroke-width="3" stroke-linecap="round"/>
<path d="M662.924 666.615C663.272 666.615 663.621 666.615 663.883 666.354C664.057 666.354 664.232 666.179 664.406 666.005C664.929 665.482 665.191 664.697 665.017 663.912L624.029 516.356V515.92C623.942 515.92 573.71 335.05 573.71 335.05L573.536 334.527L573.1 333.829L572.925 333.568L307.117 65.5773L288.629 47.002C269.618 27.8162 244.59 15.1711 217.991 11.4211C208.224 10.0258 198.457 9.32812 188.864 9.32812C140.726 9.32812 98.8661 26.6825 64.4192 60.7809C12.4435 112.321 8.17041 172.494 13.6644 213.918C15.4086 227.174 19.4202 240.081 25.3503 252.203C31.3676 264.324 39.129 275.4 48.6346 284.906L333.018 571.82H333.105C333.105 571.907 333.28 572.082 333.28 572.082H333.454C333.454 572.169 333.454 572.169 333.454 572.256H333.628L334.064 572.431L514.148 624.145C514.409 624.145 514.758 624.319 514.758 624.319L557.664 636.616L662.313 666.702H662.4H662.836L662.924 666.615ZM609.378 517.053C609.727 517.053 609.989 517.053 610.337 517.053H610.686C610.948 517.053 611.297 517.141 611.646 517.141C612.605 517.228 613.564 517.315 614.523 517.489L620.279 518.274L654.29 640.802L660.046 661.383L517.287 620.395L516.59 614.639C516.502 613.68 516.415 612.721 516.328 611.761C516.328 611.5 516.328 611.151 516.328 610.802V610.453C516.328 610.192 516.328 609.843 516.241 609.581C516.241 609.058 516.241 608.447 516.153 607.924C516.153 607.401 516.153 606.878 516.153 606.354C516.153 605.657 516.153 604.959 516.153 604.174C516.153 603.738 516.153 603.128 516.153 602.604C515.805 577.576 524.002 556.559 540.484 540.251C556.443 524.466 576.675 516.443 600.745 516.443C624.814 516.443 602.314 516.443 603.099 516.443C603.535 516.443 604.059 516.443 604.582 516.443C605.279 516.443 605.977 516.443 606.675 516.53C607.198 516.53 607.721 516.53 608.244 516.617C608.768 516.617 609.378 516.617 609.901 516.705L609.378 517.053ZM600.396 512.431C598.477 512.431 596.559 512.431 594.815 512.606C594.03 512.606 593.332 512.606 592.634 512.78C590.541 512.955 588.536 513.129 586.53 513.391C585.047 513.565 583.565 513.827 582.082 514.088C564.641 517.315 549.467 525.164 537.083 537.46C524.7 549.756 516.677 564.843 513.363 582.285C512.055 588.913 511.531 595.802 511.531 602.866C511.531 603.215 511.531 603.564 511.531 604C511.531 604.523 511.531 604.959 511.531 605.395C511.531 605.918 511.531 606.442 511.531 606.878L512.055 619L472.201 607.575L430.777 595.715L336.768 568.681L344.268 462.461C344.617 457.141 345.75 451.822 347.582 446.764V446.589L347.669 446.502C349.762 440.746 352.727 435.339 356.477 430.456C367.29 416.59 379.063 403.247 391.621 390.776C404.179 378.393 417.609 366.707 431.562 355.98C436.184 352.492 441.242 349.701 446.736 347.608C446.911 347.608 447.172 347.434 447.172 347.434H447.347L447.783 347.172H448.219C453.19 345.341 458.335 344.381 463.567 344.033L569.873 337.492L618.709 513.303L606.588 512.606C606.152 512.606 605.628 512.606 605.192 512.606C604.669 512.606 604.233 512.606 603.71 512.606H603.622C603.274 512.606 602.925 512.606 602.576 512.606H602.489C601.966 512.606 601.442 512.606 600.919 512.606H600.309L600.396 512.431ZM340.169 460.804C340.169 461.24 340.169 461.589 340.082 462.025L332.756 565.454L161.481 392.608V389.294V388.247V386.329C161.307 385.544 161.219 384.759 161.219 383.887C161.219 383.625 161.219 383.363 161.219 383.102C161.219 383.102 161.132 380.922 161.132 380.834C161.132 380.66 161.132 380.398 161.132 380.224C161.132 380.05 161.132 378.218 161.132 378.218C161.132 378.218 161.132 376.736 161.132 376.561V376.125C161.132 375.951 161.132 375.776 161.132 375.602C161.132 373.596 161.132 371.678 161.132 369.759C161.132 369.41 161.132 369.061 161.132 368.625C161.132 365.486 161.307 362.259 161.394 359.207C161.394 358.509 161.394 357.811 161.481 357.114C161.655 354.759 161.743 352.579 161.917 350.486C161.917 350.05 161.917 349.614 162.004 349.178C162.004 348.829 162.091 347.87 162.091 347.87C162.091 347.347 162.091 346.91 162.266 346.474C162.789 341.329 163.4 336.184 164.184 331.126C164.184 330.777 164.272 330.341 164.359 329.818C164.359 329.556 164.446 329.294 164.533 328.946V328.597C164.969 326.329 165.405 324.149 165.754 321.969L166.277 319.353C166.277 318.917 166.452 318.393 166.539 317.957C167.324 314.295 168.196 310.632 169.155 306.969C169.33 306.184 169.591 305.312 169.766 304.527C170.027 303.481 170.289 302.434 170.638 301.388C170.725 300.952 170.899 300.516 171.074 299.993C171.335 299.12 171.597 298.248 171.859 297.376C172.033 296.853 172.207 296.33 172.382 295.719C172.556 295.283 172.644 294.76 172.818 294.324C172.992 293.801 173.167 293.365 173.341 292.841L177.876 279.499L343.134 446.24L342.349 449.99V450.165L342.088 451.037V451.211V451.299C342.088 451.473 342 451.735 341.913 451.909V452.083C341.739 452.607 341.651 453.043 341.564 453.566C341.564 453.828 341.564 454.002 341.477 454.089V454.264C341.39 454.525 341.303 454.874 341.303 455.136C341.215 455.659 341.128 456.008 341.041 456.444C341.041 456.967 340.867 457.49 340.779 457.926C340.779 458.275 340.692 458.711 340.605 459.147V459.496C340.605 459.845 340.518 460.107 340.431 460.455V460.63L340.169 460.804ZM349.936 432.462L344.006 441.27L179.62 275.4L182.149 269.906C182.411 269.295 182.76 268.598 183.021 267.987C183.893 266.243 184.765 264.412 185.812 262.493L186.422 261.272C186.858 260.4 187.294 259.615 187.73 258.743C187.992 258.307 188.254 257.784 188.515 257.348C188.777 256.825 189.126 256.301 189.387 255.778C189.649 255.342 189.823 254.993 189.998 254.644C190.259 254.208 190.434 253.772 190.695 253.423C191.044 252.813 191.393 252.203 191.742 251.679C193.486 248.801 195.317 245.924 197.236 243.133C197.498 242.784 197.759 242.348 198.021 241.999C198.37 241.476 198.719 241.04 198.98 240.604C199.329 240.168 199.591 239.732 199.939 239.296C200.463 238.598 200.986 237.813 201.596 237.028C202.032 236.505 202.381 235.895 202.817 235.371C203.253 234.761 203.689 234.238 204.125 233.627C205.085 232.406 206.044 231.273 206.916 230.139C207.352 229.616 207.875 229.005 208.311 228.395C208.922 227.697 209.445 226.999 210.056 226.389C210.404 226.04 210.753 225.604 211.102 225.168C211.712 224.47 212.323 223.773 212.933 223.075C213.369 222.639 213.805 222.116 214.241 221.68C214.677 221.244 215.201 220.72 215.637 220.197C216.683 219.151 217.73 218.017 218.863 216.883C219.997 215.837 221.044 214.703 222.177 213.657C222.701 213.133 223.224 212.697 223.747 212.261C224.183 211.825 224.706 211.389 225.142 210.953C225.84 210.343 226.451 209.732 227.148 209.209L228.369 208.162C228.98 207.639 229.59 207.116 230.288 206.593H230.375C230.985 205.982 231.509 205.546 232.119 205.023C233.253 204.151 234.474 203.192 235.607 202.232C236.218 201.796 236.828 201.36 237.351 200.924C237.875 200.488 238.398 200.139 239.008 199.703C239.793 199.093 240.578 198.57 241.363 198.046C241.712 197.785 242.235 197.436 242.671 197.174C243.107 196.825 243.63 196.477 244.066 196.215C244.502 195.953 244.851 195.692 245.287 195.43C248.078 193.512 250.956 191.68 253.921 190.023C254.444 189.674 255.055 189.326 255.665 188.977C256.101 188.715 256.537 188.453 256.886 188.279C257.235 188.105 257.584 187.843 258.02 187.669C258.543 187.32 259.153 187.058 259.677 186.797C260.113 186.535 260.549 186.273 261.072 186.099C261.857 185.663 262.729 185.227 263.514 184.791L264.735 184.18C266.653 183.221 268.572 182.262 270.316 181.477C270.926 181.215 271.537 180.866 272.234 180.605L277.728 178.076L442.289 344.12L433.045 349.876C432.696 350.137 432.26 350.399 431.911 350.66C431.562 350.922 431.213 351.096 430.865 351.358C430.516 351.62 430.167 351.881 429.818 352.143C429.469 352.492 429.12 352.753 428.684 353.015C414.557 363.742 400.953 375.602 388.307 388.16C375.662 400.718 363.715 414.235 352.814 428.276C352.204 429.148 351.593 429.845 351.07 430.63C350.808 430.979 350.634 431.241 350.459 431.502L350.285 431.764V431.938C350.023 432.113 349.849 432.374 349.762 432.549C349.762 432.723 349.675 432.81 349.587 432.898L349.936 432.462ZM156.51 366.707L155.9 387.026L70.6109 300.952L70.3492 297.9C70.3492 297.725 70.3492 297.551 70.3492 297.464C70.3492 297.289 70.3492 297.027 70.3492 296.853C70.3492 296.853 70.3492 295.981 70.3492 295.719V294.586L70.1749 291.795C70.1749 291.621 70.1749 291.359 70.1749 291.185V288.219C70.0876 288.219 70.0004 285.952 70.0004 285.952C70.0004 285.778 70.0004 285.516 70.0004 285.342V282.028C70.0004 280.109 70.0004 278.191 70.0004 276.185C70.0004 276.185 70.0004 275.574 70.0004 275.313C70.0004 275.313 70.0004 274.092 70.0004 273.83V271.388C70.0004 270.429 70.0004 269.47 70.0876 268.423C70.0876 266.679 70.262 264.935 70.3492 263.191C70.3492 262.493 70.4365 261.708 70.5237 260.923V259.877C70.6109 259.354 70.6981 258.743 70.6981 258.22V257.871C70.7853 257.086 70.8725 256.389 70.9597 255.604V254.383C71.2213 253.075 71.3086 251.679 71.483 250.371C71.5702 249.499 71.6573 248.54 71.8318 247.581C72.1806 244.79 72.6166 241.912 72.9655 239.209C80.2909 192.552 98.8661 154.181 128.255 125.053C164.969 88.6002 211.276 75.4318 243.543 70.7226C256.014 68.8912 268.746 68.0191 281.391 68.0191C294.036 68.0191 284.792 68.0191 286.449 68.0191H287.932C288.455 68.0191 288.978 68.0191 289.501 68.0191H289.414H290.112H290.635H290.81H291.682C291.943 68.0191 292.292 68.0191 292.554 68.0191H293.251C293.949 68.0191 294.734 68.1063 295.432 68.1936H295.344H296.391C296.391 68.1936 296.565 68.1936 296.652 68.1936C296.827 68.1936 297.001 68.1936 297.176 68.1936H298.92C298.92 68.2808 299.094 68.368 299.094 68.368L301.274 68.5424H301.71L304.85 69.2401L306.943 71.1586L383.162 148.076L398.075 163.076L566.821 333.393L463.48 339.759C463.044 339.759 462.608 339.759 462.172 339.847H461.213C460.864 339.934 460.515 340.021 460.254 340.021C459.469 340.021 458.771 340.195 458.073 340.283L457.114 340.457L456.155 340.632C455.98 340.632 455.719 340.632 455.544 340.719H455.283C454.672 340.893 454.149 340.98 453.539 341.155C453.19 341.155 452.841 341.329 452.579 341.416L452.143 341.504H452.056C451.446 341.591 450.922 341.678 450.312 341.678H446.649L282.176 175.721L295.606 171.273C296.129 171.099 296.652 170.925 297.089 170.837C297.525 170.663 298.048 170.576 298.484 170.401C299.007 170.227 299.618 170.053 300.141 169.878C301.013 169.617 301.885 169.355 302.757 169.093C303.193 169.006 303.716 168.832 304.152 168.657C305.112 168.396 306.158 168.134 307.205 167.872C307.989 167.698 308.862 167.436 309.646 167.262C313.309 166.39 317.059 165.518 320.722 164.733C321.158 164.646 321.681 164.558 322.117 164.471C322.553 164.471 322.989 164.297 323.425 164.21C323.861 164.122 324.297 164.035 324.733 163.948C326.913 163.512 329.094 163.163 331.361 162.814C331.361 162.814 332.408 162.64 332.756 162.64C333.105 162.64 333.541 162.553 333.977 162.465C338.948 161.768 344.18 161.157 349.326 160.721C349.762 160.721 350.198 160.721 350.721 160.634C351.157 160.634 351.593 160.634 352.029 160.547C352.465 160.547 352.901 160.547 353.337 160.46C355.692 160.285 357.872 160.198 360.052 160.024C360.75 160.024 361.448 160.024 362.145 159.936C365.372 159.849 368.599 159.762 371.651 159.762H372.872C374.703 159.762 376.622 159.762 378.54 159.762H381.069L382.988 159.936V155.14L369.558 155.402H368.424C368.163 155.402 367.901 155.402 367.639 155.402H364.064C363.715 155.489 361.535 155.576 361.535 155.576H359.18C357.872 155.75 356.564 155.838 355.256 155.925C354.384 155.925 353.599 156.012 352.727 156.099H351.157C351.157 156.186 348.89 156.448 348.89 156.448C348.802 156.448 348.628 156.448 348.541 156.448H348.366C347.93 156.448 347.494 156.535 347.146 156.535H346.884C346.448 156.535 346.099 156.623 345.663 156.71H345.576C345.053 156.71 344.617 156.797 344.181 156.884H343.919C343.483 156.884 343.134 156.971 342.698 157.059H342.611C341.564 157.146 340.518 157.32 339.471 157.407C338.686 157.495 337.902 157.582 337.117 157.669H337.029C336.419 157.669 335.896 157.843 335.285 157.931L334.326 158.105L333.716 158.279H333.105C332.32 158.367 331.623 158.541 330.838 158.628C329.268 158.89 327.611 159.152 325.954 159.413C325.344 159.5 324.82 159.588 324.384 159.675H324.123C323.687 159.762 323.251 159.849 322.815 159.936C321.158 160.285 319.501 160.547 317.844 160.896C317.408 160.983 316.885 161.07 316.361 161.245H315.751C314.879 161.593 313.92 161.768 313.047 161.942C312.611 162.029 311.478 162.291 311.478 162.291C308.774 162.902 306.071 163.599 303.367 164.384C303.367 164.384 301.536 164.907 301.449 164.907H301.187C300.751 165.082 300.228 165.256 299.792 165.343H299.53C299.007 165.518 298.571 165.692 298.048 165.867C296.565 166.303 295.17 166.739 293.775 167.175L291.507 167.96C291.246 168.047 290.984 168.134 290.722 168.221H290.548C290.286 168.396 289.938 168.483 289.676 168.57H289.589C289.327 168.657 289.153 168.744 288.891 168.832L288.368 169.006C284.792 170.314 281.13 171.622 277.728 173.105C254.008 182.872 233.253 196.477 216.073 213.569C198.806 230.662 185.027 251.33 175.085 274.877C173.603 278.278 172.208 281.94 170.899 285.516L170.725 285.952C170.725 286.214 170.551 286.388 170.463 286.65V286.824C170.289 287.086 170.202 287.347 170.115 287.696V287.871C169.94 288.132 169.853 288.394 169.766 288.743L169.417 289.615L168.981 290.923C168.458 292.318 168.022 293.801 167.586 295.196C167.411 295.632 167.062 296.94 167.062 296.94C166.888 297.376 166.801 297.812 166.713 298.248L166.016 300.516C165.231 303.219 164.533 305.923 163.836 308.626C163.748 309.237 163.574 309.673 163.487 310.109C163.225 311.068 163.051 311.94 162.876 312.899V313.161V313.335V313.51C162.789 314.033 162.615 314.469 162.527 314.992C162.179 316.649 161.83 318.219 161.481 319.876C161.394 320.312 161.132 321.446 161.132 321.446C161.045 321.969 160.958 322.492 160.871 323.015C160.522 324.672 160.26 326.329 159.999 327.899C159.911 328.597 159.737 329.382 159.65 330.079V330.428L159.475 331.126L159.301 332.347C159.214 332.957 159.126 333.48 159.039 334.091C158.952 334.963 158.778 335.748 158.69 336.533C158.516 337.579 158.429 338.626 158.342 339.672C158.342 340.195 158.254 340.719 158.167 341.155V341.329C158.167 341.765 158.08 342.114 157.993 342.55C157.993 343.073 157.906 343.509 157.818 343.945V344.12C157.818 344.556 157.731 344.992 157.644 345.428C157.644 345.69 157.644 345.777 157.644 345.951L157.469 348.306L157.295 349.963C157.295 350.748 157.208 351.533 157.121 352.317C157.033 353.713 156.946 355.021 156.859 356.329V358.509C156.772 358.509 156.685 360.079 156.685 360.079C156.685 360.515 156.685 360.951 156.685 361.387C156.685 362.434 156.597 364.788 156.597 364.788V366.707H156.51ZM189.126 13.4269C198.457 13.4269 207.963 14.1246 217.381 15.4327C242.497 19.0082 266.304 30.7813 284.443 48.5717L299.53 63.3099L278.426 63.4843C277.728 63.4843 276.944 63.4843 276.159 63.4843H276.072C275.723 63.4843 275.461 63.4843 275.112 63.4843C274.327 63.4843 273.543 63.4843 272.758 63.4843H270.229C269.618 63.5715 269.008 63.6587 268.397 63.6587C267.351 63.6587 266.217 63.7459 265.171 63.8332C264.473 63.8332 263.775 63.8332 263.078 64.0076H262.903C262.118 64.0076 261.333 64.0948 260.549 64.182H260.461C260.113 64.182 259.677 64.182 259.328 64.2692H259.241C258.804 64.2692 258.368 64.2692 258.02 64.3564H256.799C256.275 64.5308 254.793 64.618 254.618 64.7052H254.444C253.136 64.8797 251.828 64.9669 250.52 65.1413C249.473 65.2285 248.427 65.4029 247.38 65.4901H247.293C246.77 65.4901 246.159 65.6645 245.636 65.7517H245.113C244.328 65.9262 243.543 66.0134 242.758 66.1878C221.829 69.2401 202.032 74.647 184.068 82.4085C161.568 92.0886 141.685 105.257 125.116 121.739C108.546 138.222 95.1162 157.931 85.2618 180.343C77.4131 198.308 71.7446 218.017 68.5179 238.86C68.3435 239.819 68.2563 240.778 68.0819 241.738C68.0819 242.261 67.8203 243.569 67.8203 243.569C67.6459 244.615 67.5587 245.662 67.3842 246.708C67.2098 248.017 67.0354 249.325 66.9482 250.546V251.418C66.7738 251.941 66.7738 252.377 66.6866 252.9C66.6866 253.336 66.6865 253.685 66.5994 253.947V254.383C66.5121 255.08 66.4249 255.865 66.3377 256.563C66.3377 257.435 66.1633 258.133 66.1633 258.918V259.179C66.1633 259.877 66.0761 260.575 65.9889 261.185C65.9889 262.319 65.8145 263.365 65.8145 264.412C65.8145 265.109 65.8145 265.807 65.7273 266.417V268.772C65.5529 269.47 65.5529 270.255 65.5529 271.039C65.5529 271.388 65.5529 271.737 65.5529 272.086C65.5529 272.958 65.5529 273.743 65.5529 274.441L65.1168 295.458L50.5532 280.284C32.9373 261.97 21.3387 238.075 18.0248 212.959C16.8039 203.802 16.1935 194.558 16.1935 185.488C16.3679 138.047 33.6349 96.9722 67.4714 63.3971C101.133 30.0836 142.034 13.1653 189.213 13.1653L189.126 13.4269Z" fill="#7F7F7F"/>
<path d="M382.723 155.579C382.723 155.579 391.793 155.754 392.839 156.364C393.886 156.975 394.758 160.55 394.758 160.55C394.758 160.55 383.944 160.376 382.723 160.289C381.502 160.201 382.723 155.492 382.723 155.492V155.579Z" fill="#7F7F7F"/>
</svg>
