<svg width="108" height="41" viewBox="0 0 108 41" fill="none" xmlns="http://www.w3.org/2000/svg">
<path d="M31.5923 0.0287213C52.6909 -0.328371 82.3215 2.55397 99.7205 13.7647C105.138 17.236 111.131 22.9609 106.118 28.9119C103.096 32.3576 98.2161 34.3053 93.7427 35.7991C80.2539 39.969 65.8303 41.1099 51.6332 40.9919C39.0952 40.834 26.3403 41.5552 13.9013 39.6133C4.23822 37.9857 -2.72393 33.7618 1.03793 24.1516C1.64735 22.5938 2.42429 21.1299 3.29057 19.7043C3.94946 18.6004 4.80776 17.4736 5.70116 16.5062C8.03677 13.988 10.993 11.9792 14.1502 10.3602C17.9487 8.41825 22.0791 6.99842 26.259 5.86454C36.8569 3.07752 47.8905 1.96499 58.8777 1.48981C68.2696 1.11422 77.7046 1.21666 87.0709 1.89243C83.9408 1.78857 80.8107 1.75443 77.6822 1.77008C60.5895 1.94934 43.2224 2.91676 26.8189 7.46506C21.7313 8.94464 16.7076 10.8453 12.3666 13.6665C9.96396 15.2343 7.77672 17.1578 6.17339 19.3928C3.9 22.8328 1.01559 28.2931 3.28898 32.1158C6.82111 37.9502 21.425 38.1735 28.2069 38.4581C35.9173 38.6757 43.8861 38.5321 51.6491 38.5804C62.4864 38.7341 73.4258 37.9943 84.0142 35.9314C90.3717 34.6396 100.111 32.2481 104.267 27.6514C106.766 24.853 105.753 21.9038 103.444 19.3473C102.01 17.7809 100.322 16.4592 98.5017 15.2286C96.0639 13.5868 93.3981 12.1428 90.6748 10.9022C83.7637 7.74675 76.3262 5.65683 68.7514 4.07339C56.5884 1.57375 44.0759 0.313257 31.5939 0.0272989L31.5923 0.0287213Z" fill="black"/>
</svg>
