<svg width="125" height="46" viewBox="0 0 125 46" fill="none" xmlns="http://www.w3.org/2000/svg">
<path d="M36.3923 0.032224C60.6965 -0.368416 94.8291 2.86543 114.872 15.4433C121.113 19.338 128.015 25.761 122.241 32.4378C118.76 36.3037 113.139 38.4889 107.986 40.1648C92.4474 44.8432 75.8323 46.1234 59.4781 45.9909C45.0352 45.8137 30.3424 46.623 16.0134 44.4442C4.88215 42.6182 -3.1378 37.8791 1.19562 27.097C1.89764 25.3491 2.79263 23.7067 3.79053 22.1073C4.54952 20.8687 5.53823 19.6045 6.56737 18.5191C9.25784 15.6939 12.6632 13.4401 16.3001 11.6236C20.6758 9.44486 25.4337 7.85188 30.2487 6.57973C42.4568 3.45283 55.1667 2.20462 67.8233 1.6715C78.6422 1.25011 89.5107 1.36503 100.3 2.12321C96.6944 2.00669 93.0888 1.96838 89.4849 1.98594C69.7952 2.18706 49.7895 3.27246 30.8937 8.37543C25.0331 10.0355 19.246 12.1679 14.2455 15.3332C11.4778 17.0921 8.95829 19.2502 7.11135 21.7578C4.49255 25.6173 1.1699 31.7434 3.78869 36.0323C7.85748 42.5783 24.6803 42.8289 32.4926 43.1481C41.3744 43.3923 50.554 43.2311 59.4965 43.2854C71.9803 43.4578 84.5818 42.6277 96.779 40.3133C104.102 38.864 115.322 36.1808 120.109 31.0236C122.987 27.8839 121.82 24.575 119.161 21.7067C117.509 19.9493 115.564 18.4664 113.468 17.0858C110.66 15.2438 107.589 13.6237 104.452 12.2318C96.4904 8.69147 87.9228 6.34669 79.1972 4.57015C65.1862 1.76567 50.7727 0.351459 36.3941 0.030628L36.3923 0.032224Z" fill="white"/>
</svg>
